<svg width="259" height="259" viewBox="0 0 259 259" fill="none" xmlns="http://www.w3.org/2000/svg">
<g clip-path="url(#clip0_1_139)">
<path d="M58.8005 90.5581L48.9833 96.7676L151.224 247.101L161.042 240.892L58.8005 90.5581Z" fill="#E6E6E6"/>
<path d="M35.4284 33.9835L58.1423 67.3817C58.5821 68.0284 58.7376 68.8172 58.5744 69.5745C58.4112 70.3318 57.9428 70.9955 57.2721 71.4197C56.6015 71.8439 55.7835 71.9938 54.9983 71.8364C54.213 71.679 53.5248 71.2273 53.0849 70.5805L26.9726 32.1853C23.4282 31.8999 19.8657 32.4641 16.6022 33.8278L45.0527 75.661C45.4922 76.3078 45.6474 77.0964 45.4842 77.8535C45.3209 78.6106 44.8525 79.2742 44.182 79.6983C43.5114 80.1224 42.6937 80.2724 41.9086 80.1151C41.1235 79.9579 40.4353 79.5064 39.9953 78.8599L11.5448 37.0267C8.9475 39.37 6.99142 42.2964 5.8507 45.5452L31.963 83.9404C32.4026 84.5872 32.5578 85.3758 32.3945 86.1329C32.2312 86.89 31.7628 87.5536 31.0923 87.9777C30.4218 88.4018 29.6041 88.5517 28.819 88.3945C28.0339 88.2373 27.3456 87.7858 26.9057 87.1392L4.19181 53.7411C3.60842 63.0533 6.7567 74.0908 13.6564 84.2361C26.4799 103.091 47.3974 111.721 60.3772 103.512C73.3569 95.3017 73.4835 73.361 60.6601 54.5056C53.7604 44.3603 44.5174 37.1778 35.4284 33.9835Z" fill="#E6E6E6"/>
<path d="M102.817 69.9921H91.077V249.776H102.817V69.9921Z" fill="#E6E6E6"/>
<path d="M96.7693 81.6574C112.292 81.6574 124.875 63.3778 124.875 40.8287C124.875 18.2796 112.292 0 96.7693 0C81.2469 0 68.6635 18.2796 68.6635 40.8287C68.6635 63.3778 81.2469 81.6574 96.7693 81.6574Z" fill="#E6E6E6"/>
<path d="M96.7693 74.422C109.541 74.422 119.894 59.3818 119.894 40.8287C119.894 22.2757 109.541 7.23547 96.7693 7.23547C83.9977 7.23547 73.6443 22.2757 73.6443 40.8287C73.6443 59.3818 83.9977 74.422 96.7693 74.422Z" fill="#CCCCCC"/>
<path d="M129.5 259C201.021 259 259 255.792 259 251.834C259 247.877 201.021 244.669 129.5 244.669C57.9792 244.669 3.05176e-05 247.877 3.05176e-05 251.834C3.05176e-05 255.792 57.9792 259 129.5 259Z" fill="#E6E6E6"/>
<path d="M206.086 251.729C157.554 243.293 107.85 243.293 59.3182 251.729C58.5473 251.864 57.7551 251.834 56.9976 251.641C56.24 251.448 55.5356 251.097 54.934 250.613C54.3324 250.129 53.8482 249.524 53.5157 248.84C53.1832 248.156 53.0104 247.409 53.0096 246.654V182.528H212.394V246.654C212.393 247.409 212.221 248.156 211.888 248.84C211.556 249.524 211.072 250.129 210.47 250.613C209.868 251.097 209.164 251.448 208.406 251.641C207.649 251.834 206.857 251.864 206.086 251.729Z" fill="#7EB685"/>
<path d="M197.808 135.181C194.128 135.177 190.473 135.767 186.994 136.926C181.92 126.313 173.813 117.316 163.623 110.99C153.433 104.665 141.584 101.274 129.466 101.215C117.348 101.156 105.464 104.431 95.2084 110.657C84.9529 116.883 76.7515 125.8 71.5668 136.363C66.4615 134.982 61.0867 134.805 55.8953 135.845C50.7039 136.886 45.8479 139.115 41.7363 142.344C37.6247 145.573 34.378 149.707 32.2696 154.399C30.1613 159.091 29.253 164.203 29.6214 169.304C29.9898 174.405 31.624 179.346 34.3864 183.711C37.1487 188.076 40.9584 191.737 45.4944 194.385C50.0304 197.033 55.1598 198.591 60.4507 198.928C65.7416 199.265 71.0389 198.37 75.8965 196.32C81.7348 204.9 89.7091 211.932 99.0911 216.774C108.473 221.617 118.964 224.115 129.605 224.042C140.245 223.968 150.698 221.324 160.006 216.352C169.315 211.38 177.184 204.237 182.893 195.577C187.354 197.749 192.267 198.918 197.263 198.997C202.26 199.076 207.21 198.063 211.742 196.033C216.274 194.003 220.271 191.01 223.432 187.278C226.593 183.546 228.836 179.172 229.994 174.484C231.152 169.796 231.193 164.916 230.116 160.21C229.038 155.505 226.87 151.095 223.773 147.314C220.676 143.532 216.731 140.475 212.234 138.374C207.737 136.273 202.805 135.181 197.808 135.181Z" fill="#7EB685"/>
<path d="M65.8173 162.629H65.1058C65.0815 153.493 67.1781 144.468 71.2418 136.215L71.8849 136.509C67.8664 144.67 65.7932 153.595 65.8173 162.629Z" fill="#3F3D56"/>
<path d="M193.183 162.629H192.471C192.493 153.803 190.515 145.079 186.674 137.068L187.321 136.78C191.204 144.881 193.205 153.703 193.183 162.629Z" fill="#3F3D56"/>
<path d="M53.0955 212.368L52.9238 211.702C53.1246 211.654 73.3462 206.864 102.981 204.488C130.332 202.294 171.533 201.765 212.481 211.702L212.307 212.368C171.459 202.456 130.349 202.982 103.055 205.171C73.4731 207.542 53.2958 212.32 53.0955 212.368Z" fill="#3F3D56"/>
<path d="M53.0955 221.632L52.9238 220.965C53.1246 220.918 73.3462 216.128 102.981 213.751C130.332 211.558 171.533 211.029 212.481 220.966L212.307 221.631C171.459 211.719 130.349 212.247 103.055 214.434C73.4731 216.805 53.2958 221.584 53.0955 221.632Z" fill="#3F3D56"/>
<path d="M53.0955 230.895L52.9238 230.229C53.1246 230.181 73.3462 225.392 102.981 223.015C130.332 220.822 171.533 220.293 212.481 230.23L212.307 230.895C171.459 220.983 130.349 221.51 103.055 223.698C73.4731 226.069 53.2958 230.847 53.0955 230.895Z" fill="#3F3D56"/>
<path d="M184.028 180.523L175.407 177.697L183.683 136.961L177.993 136.462C172.446 140.567 165.058 142.177 155.58 140.952L170.752 163.065L163.016 168.332L138.337 139.784C137.225 138.497 136.615 136.875 136.615 135.2C136.615 133.647 137.139 132.136 138.108 130.895C139.076 129.654 140.437 128.75 141.984 128.32L168.339 120.999L199.2 124.325C203.865 131.185 204.048 135.956 196.945 137.332L184.028 180.523Z" fill="#2F2E41"/>
<path d="M175.205 196.37C174.313 196.316 173.448 196.06 172.679 195.622C171.91 195.185 171.259 194.579 170.778 193.853C170.298 193.127 170.001 192.302 169.913 191.445C169.825 190.589 169.948 189.724 170.272 188.921L174.557 178.294C176.734 174.317 179.722 174.815 183.25 178.294L184.974 183.171C185.116 183.572 185.172 183.998 185.139 184.421C185.107 184.844 184.986 185.256 184.783 185.633L180.606 193.421C180.1 194.365 179.319 195.147 178.36 195.671C177.401 196.194 176.305 196.437 175.205 196.37Z" fill="#2F2E41"/>
<path d="M164.064 182.453C163.173 182.399 162.307 182.143 161.538 181.705C160.769 181.268 160.118 180.662 159.637 179.936C159.157 179.21 158.86 178.385 158.772 177.529C158.684 176.672 158.807 175.807 159.131 175.004L163.416 164.377C165.593 160.4 168.581 160.898 172.109 164.377L173.833 169.254C173.975 169.655 174.031 170.081 173.998 170.504C173.966 170.927 173.845 171.339 173.643 171.716L169.465 179.504C168.959 180.448 168.179 181.23 167.219 181.754C166.26 182.277 165.164 182.52 164.064 182.453Z" fill="#2F2E41"/>
<path d="M169.545 82.0927C174.878 82.0927 179.2 77.924 179.2 72.7817C179.2 67.6394 174.878 63.4707 169.545 63.4707C164.213 63.4707 159.891 67.6394 159.891 72.7817C159.891 77.924 164.213 82.0927 169.545 82.0927Z" fill="#FFB9B9"/>
<path d="M184.545 85.917L171.269 92.5676L168.511 80.5962L177.648 75.1094L184.545 85.917Z" fill="#FFB9B9"/>
<path d="M200.579 125.987C187.332 122.129 175.313 120.13 166.614 123.161C169.613 115.027 164.079 102.605 157.994 89.9073C160.619 86.5975 164.805 85.3155 169.545 84.753C174.731 88.3845 178.348 86.0537 181.097 80.4301C187.093 80.198 192.871 82.2457 198.51 85.7506C194.102 99.3669 194.895 112.775 200.579 125.987Z" fill="#3F3D56"/>
<path d="M166.442 125.156C164.35 126.345 162.42 128.348 160.58 130.809C157.471 128.974 154.735 126.884 152.58 124.399C151.072 122.637 150.043 120.54 149.588 118.297C149.132 116.055 149.265 113.738 149.972 111.557L155.864 93.0911C156.354 91.5574 157.304 90.1984 158.596 89.1865L159.373 88.5771L167.132 102.71L159.373 116.676C160.357 119.22 163.256 122.159 166.442 125.156Z" fill="#3F3D56"/>
<path d="M169.112 139.235C168.409 139.545 167.641 139.692 166.868 139.665C166.096 139.639 165.34 139.439 164.661 139.082C163.983 138.725 163.399 138.221 162.957 137.61C162.516 136.998 162.227 136.295 162.116 135.558L160.833 127.092L165.316 124.764L171.005 131.946C171.459 132.52 171.774 133.185 171.925 133.892C172.077 134.599 172.061 135.33 171.879 136.03C171.697 136.731 171.354 137.382 170.875 137.937C170.396 138.492 169.794 138.936 169.112 139.235Z" fill="#FFB9B9"/>
<path d="M179.286 72.3742L177.638 72.4214L173.065 66.1745C167.206 66.7587 162.405 69.2137 158.342 72.9742L157.93 70.3256C157.537 67.7998 158.163 65.2248 159.678 63.1304C161.194 61.0359 163.484 59.5812 166.078 59.0654H166.078C167.44 58.7945 168.845 58.7912 170.209 59.0556C171.573 59.32 172.867 59.8467 174.015 60.6043C175.163 61.3619 176.141 62.3348 176.891 63.465C177.64 64.5952 178.146 65.8594 178.378 67.1822L179.286 72.3742Z" fill="#2F2E41"/>
<path d="M160.747 130.813C160.426 130.134 160.273 129.393 160.301 128.648C160.328 127.903 160.535 127.175 160.905 126.52C161.275 125.865 161.798 125.303 162.432 124.877C163.067 124.451 163.795 124.173 164.56 124.065L173.338 122.828L175.752 127.151L168.305 132.638C167.71 133.076 167.02 133.379 166.287 133.525C165.554 133.671 164.796 133.656 164.07 133.48C163.344 133.305 162.668 132.974 162.092 132.512C161.517 132.05 161.057 131.469 160.747 130.813Z" fill="#FFB9B9"/>
<path d="M202.251 123.112C193.9 123.737 184.781 126.249 175.235 129.812C175.116 127.079 174.089 124.455 172.304 122.329C180.974 120.127 188.842 117.543 193.683 113.517L190.752 92.235L197.131 85.2517L198.231 85.8053C199.145 86.2633 199.949 86.9014 200.59 87.6782C201.232 88.4551 201.697 89.3534 201.956 90.3148C204.649 100.419 205.845 110.099 205.023 119.21C205.129 120.074 204.907 120.945 204.397 121.663C203.887 122.38 203.125 122.895 202.251 123.112Z" fill="#3F3D56"/>
<path d="M34.1133 249.814C26.346 254.499 18.5787 254.497 10.8114 249.808C10.5655 249.662 10.3658 249.454 10.234 249.206C10.1022 248.958 10.0434 248.68 10.0638 248.403L12.4875 218.017H32.0906L34.8595 248.392C34.8834 248.672 34.8263 248.954 34.6946 249.205C34.5629 249.456 34.3617 249.667 34.1133 249.814Z" fill="#3F3D56"/>
<path d="M22.1986 221.798C27.6618 221.798 32.0905 220.26 32.0905 218.361C32.0905 216.463 27.6618 214.924 22.1986 214.924C16.7354 214.924 12.3066 216.463 12.3066 218.361C12.3066 220.26 16.7354 221.798 22.1986 221.798Z" fill="#3F3D56"/>
<path d="M29.952 217.201C24.7975 220.698 19.8077 220.698 14.9824 217.201V211.701H29.952V217.201Z" fill="#7EB685"/>
<path d="M22.4672 214.451C26.601 214.451 29.952 213.22 29.952 211.701C29.952 210.183 26.601 208.952 22.4672 208.952C18.3335 208.952 14.9824 210.183 14.9824 211.701C14.9824 213.22 18.3335 214.451 22.4672 214.451Z" fill="#7EB685"/>
<path d="M22.8236 211.701C23.2173 211.701 23.5365 211.547 23.5365 211.358C23.5365 211.168 23.2173 211.014 22.8236 211.014C22.4299 211.014 22.1108 211.168 22.1108 211.358C22.1108 211.547 22.4299 211.701 22.8236 211.701Z" fill="#E6E6E6"/>
<path d="M26.1896 211.701C26.5833 211.701 26.9025 211.547 26.9025 211.358C26.9025 211.168 26.5833 211.014 26.1896 211.014C25.7959 211.014 25.4768 211.168 25.4768 211.358C25.4768 211.547 25.7959 211.701 26.1896 211.701Z" fill="#E6E6E6"/>
<path d="M24.5066 212.513C24.9003 212.513 25.2195 212.359 25.2195 212.169C25.2195 211.979 24.9003 211.825 24.5066 211.825C24.1129 211.825 23.7938 211.979 23.7938 212.169C23.7938 212.359 24.1129 212.513 24.5066 212.513Z" fill="#E6E6E6"/>
<path d="M17.7746 212.513C18.1683 212.513 18.4875 212.359 18.4875 212.169C18.4875 211.979 18.1683 211.825 17.7746 211.825C17.381 211.825 17.0618 211.979 17.0618 212.169C17.0618 212.359 17.381 212.513 17.7746 212.513Z" fill="#E6E6E6"/>
<path d="M19.4577 211.701C19.8514 211.701 20.1705 211.547 20.1705 211.358C20.1705 211.168 19.8514 211.014 19.4577 211.014C19.064 211.014 18.7448 211.168 18.7448 211.358C18.7448 211.547 19.064 211.701 19.4577 211.701Z" fill="#E6E6E6"/>
<path d="M21.1407 212.919C21.5344 212.919 21.8535 212.765 21.8535 212.575C21.8535 212.385 21.5344 212.231 21.1407 212.231C20.747 212.231 20.4278 212.385 20.4278 212.575C20.4278 212.765 20.747 212.919 21.1407 212.919Z" fill="#E6E6E6"/>
<path d="M249.354 249.814C241.586 254.499 233.819 254.497 226.052 249.808C225.806 249.662 225.606 249.454 225.474 249.206C225.343 248.958 225.284 248.68 225.304 248.403L227.728 218.017H247.331L250.1 248.392C250.124 248.672 250.067 248.954 249.935 249.205C249.803 249.456 249.602 249.667 249.354 249.814Z" fill="#3F3D56"/>
<path d="M237.439 221.798C242.902 221.798 247.331 220.26 247.331 218.361C247.331 216.463 242.902 214.924 237.439 214.924C231.976 214.924 227.547 216.463 227.547 218.361C227.547 220.26 231.976 221.798 237.439 221.798Z" fill="#3F3D56"/>
<path d="M245.192 217.201C240.038 220.698 235.048 220.698 230.223 217.201V211.701H245.192V217.201Z" fill="#7EB685"/>
<path d="M237.708 214.451C241.841 214.451 245.192 213.22 245.192 211.701C245.192 210.183 241.841 208.952 237.708 208.952C233.574 208.952 230.223 210.183 230.223 211.701C230.223 213.22 233.574 214.451 237.708 214.451Z" fill="#7EB685"/>
<path d="M238.064 211.701C238.458 211.701 238.777 211.547 238.777 211.358C238.777 211.168 238.458 211.014 238.064 211.014C237.67 211.014 237.351 211.168 237.351 211.358C237.351 211.547 237.67 211.701 238.064 211.701Z" fill="#E6E6E6"/>
<path d="M241.43 211.701C241.824 211.701 242.143 211.547 242.143 211.358C242.143 211.168 241.824 211.014 241.43 211.014C241.036 211.014 240.717 211.168 240.717 211.358C240.717 211.547 241.036 211.701 241.43 211.701Z" fill="#E6E6E6"/>
<path d="M239.747 212.513C240.141 212.513 240.46 212.359 240.46 212.169C240.46 211.979 240.141 211.825 239.747 211.825C239.353 211.825 239.034 211.979 239.034 212.169C239.034 212.359 239.353 212.513 239.747 212.513Z" fill="#E6E6E6"/>
<path d="M233.015 212.513C233.409 212.513 233.728 212.359 233.728 212.169C233.728 211.979 233.409 211.825 233.015 211.825C232.621 211.825 232.302 211.979 232.302 212.169C232.302 212.359 232.621 212.513 233.015 212.513Z" fill="#E6E6E6"/>
<path d="M234.698 211.701C235.092 211.701 235.411 211.547 235.411 211.358C235.411 211.168 235.092 211.014 234.698 211.014C234.304 211.014 233.985 211.168 233.985 211.358C233.985 211.547 234.304 211.701 234.698 211.701Z" fill="#E6E6E6"/>
<path d="M236.381 212.919C236.775 212.919 237.094 212.765 237.094 212.575C237.094 212.385 236.775 212.231 236.381 212.231C235.987 212.231 235.668 212.385 235.668 212.575C235.668 212.765 235.987 212.919 236.381 212.919Z" fill="#E6E6E6"/>
</g>
<defs>
<clipPath id="clip0_1_139">
<rect width="259" height="259" fill="white"/>
</clipPath>
</defs>
</svg>
