<svg width="259" height="259" viewBox="0 0 259 259" fill="none" xmlns="http://www.w3.org/2000/svg">
<g clip-path="url(#clip0_1_184)">
<path d="M217.704 259C240.511 259 259 256.942 259 254.402C259 251.863 240.511 249.805 217.704 249.805C194.897 249.805 176.408 251.863 176.408 254.402C176.408 256.942 194.897 259 217.704 259Z" fill="#E6E6E6"/>
<path d="M42.0625 71.3334C42.0757 66.6539 39.38 62.8263 36.2158 62.8263H6.85408C3.73989 62.8263 1.04926 66.5906 1.01279 71.1958C1.0015 72.5046 1.1959 73.7995 1.58069 74.9783C1.96548 76.1571 2.53013 77.1876 3.23015 77.9886C3.40959 78.1864 3.5508 78.4503 3.63966 78.754C3.72853 79.0577 3.76193 79.3906 3.73654 79.7194C3.70248 80.0926 3.6854 80.4687 3.68542 80.8453V110.88C3.68542 111.986 3.83267 113.081 4.11875 114.102C4.40483 115.123 4.82414 116.051 5.35275 116.833C5.88135 117.615 6.5089 118.235 7.19956 118.658C7.89022 119.081 8.63046 119.299 9.37803 119.299H33.506C35.0157 119.299 36.4637 118.412 37.5312 116.833C38.5988 115.254 39.1985 113.113 39.1985 110.88V80.8453C39.1986 80.5158 39.1856 80.1866 39.1597 79.8593C39.1367 79.5353 39.1728 79.2081 39.2641 78.9116C39.3555 78.6151 39.4988 78.3602 39.6792 78.1732C40.4138 77.3931 41.0129 76.3663 41.4272 75.1773C41.8415 73.9883 42.0592 72.6709 42.0625 71.3334Z" fill="#3F3D56"/>
<path d="M40.7909 70.5094C40.6445 68.8802 40.1003 67.3864 39.2609 66.3093C38.4214 65.2322 37.3447 64.6462 36.2334 64.6617H6.84532C5.80643 64.6479 4.79543 65.1586 3.97931 66.1094C3.16319 67.0601 2.59074 68.3941 2.35653 69.891C2.156 71.2668 2.25594 72.7012 2.64196 73.9876C3.02797 75.2739 3.68014 76.3459 4.5045 77.049C4.74248 77.2502 4.92847 77.5628 5.0332 77.9375C5.13793 78.3121 5.15546 78.7277 5.08304 79.1187C4.97875 79.6817 4.92609 80.263 4.92647 80.8468V110.879C4.9266 112.414 5.28914 113.9 5.95147 115.082C6.61381 116.263 7.53436 117.066 8.55416 117.351C8.82617 117.426 9.10227 117.463 9.37897 117.464H33.5069C33.9142 117.465 34.3197 117.382 34.7117 117.218C35.6457 116.829 36.4683 116 37.0542 114.856C37.6401 113.712 37.9573 112.317 37.9575 110.882V80.8439C37.9576 80.2973 37.9114 79.7528 37.82 79.2232C37.7951 79.0763 37.7823 78.9256 37.7818 78.7742C37.782 78.4422 37.8432 78.1165 37.9589 77.8321C38.0746 77.5476 38.2404 77.3149 38.4386 77.1591L38.4406 77.1563C39.2401 76.5285 39.8926 75.5577 40.3121 74.3714C40.7316 73.185 40.8985 71.8387 40.7909 70.5094Z" fill="#7EB685"/>
<path opacity="0.2" d="M37.9575 83.7211V80.8975H34.7117V64.6616H32.8024V80.8975H22.5876V64.6616H20.6783V80.8975H10.4635V64.6616H8.55421V80.8975H4.92651V83.7211H8.5542V92.192H4.92651V95.0157H8.5542V103.487H4.92651V106.31H8.5542V117.351C8.82621 117.426 9.10232 117.463 9.37902 117.464H10.4635V106.31H20.6783V117.464H22.5876V106.31H32.8024V117.464H33.5069C33.9143 117.464 34.3197 117.382 34.7117 117.218V106.31H37.9575V103.487H34.7117V95.0156H37.9575V92.192H34.7117V83.7211H37.9575ZM10.4635 83.7211H20.6783V92.192H10.4635V83.7211ZM10.4635 103.487V95.0156H20.6783V103.487H10.4635ZM32.8024 103.487H22.5876V95.0156H32.8024V103.487ZM32.8024 92.192H22.5876V83.7211H32.8024V92.192Z" fill="black"/>
<path d="M41.9287 0C41.9287 3.96016 41.4013 7.88154 40.3765 11.5403C39.3518 15.199 37.8498 18.5234 35.9563 21.3236C34.0628 24.1239 31.8148 26.3452 29.3409 27.8607C26.8669 29.3761 24.2153 30.1562 21.5375 30.1562C18.8597 30.1562 16.2081 29.3761 13.7341 27.8607C11.2601 26.3452 9.0122 24.1239 7.11869 21.3236C5.22519 18.5234 3.72319 15.199 2.69843 11.5403C1.67368 7.88154 1.14624 3.96016 1.14624 0H41.9287Z" fill="#7EB685"/>
<path d="M8.62708 5.35318C8.62708 6.14157 8.43801 6.78069 8.20477 6.78069C7.97154 6.78069 7.78247 6.14157 7.78247 5.35318C7.8081 4.8197 7.95724 4.31557 8.20477 3.92566C8.45231 4.31557 8.60145 4.8197 8.62708 5.35318Z" fill="#3F3D56"/>
<path d="M29.9835 10.3495C29.9835 11.1379 29.7944 11.777 29.5612 11.777C29.328 11.777 29.1389 11.1379 29.1389 10.3495C29.1646 9.81604 29.3137 9.3119 29.5612 8.922C29.8088 9.3119 29.9579 9.81604 29.9835 10.3495Z" fill="#3F3D56"/>
<path d="M14.298 7.4944C14.298 8.28279 14.1089 8.92192 13.8757 8.92192C13.6424 8.92192 13.4534 8.28279 13.4534 7.4944C13.479 6.96093 13.6281 6.4568 13.8757 6.06689C14.1232 6.4568 14.2723 6.96093 14.298 7.4944Z" fill="#3F3D56"/>
<path d="M22.744 18.7361C22.744 19.5245 22.5549 20.1636 22.3217 20.1636C22.0885 20.1636 21.8994 19.5245 21.8994 18.7361C21.925 18.2026 22.0742 17.6985 22.3217 17.3086C22.5692 17.6985 22.7184 18.2026 22.744 18.7361Z" fill="#3F3D56"/>
<path d="M13.6947 17.3085C13.6947 18.0969 13.5056 18.736 13.2724 18.736C13.0392 18.736 12.8501 18.0969 12.8501 17.3085C12.8757 16.775 13.0249 16.2709 13.2724 15.881C13.5199 16.2709 13.6691 16.775 13.6947 17.3085Z" fill="#3F3D56"/>
<path d="M34.8099 3.92568C34.8099 4.71407 34.6209 5.3532 34.3876 5.3532C34.1544 5.3532 33.9653 4.71407 33.9653 3.92568C33.991 3.3922 34.1401 2.88808 34.3876 2.49817C34.6352 2.88808 34.7843 3.3922 34.8099 3.92568Z" fill="#3F3D56"/>
<path d="M27.0878 21.5911C27.0878 22.3795 26.8987 23.0186 26.6655 23.0186C26.4322 23.0186 26.2432 22.3795 26.2432 21.5911C26.2688 21.0576 26.4179 20.5535 26.6655 20.1636C26.913 20.5535 27.0621 21.0576 27.0878 21.5911Z" fill="#3F3D56"/>
<path d="M21.5375 31.8513C15.8274 31.8418 10.353 28.4829 6.31532 22.5117C2.27766 16.5405 0.00646333 8.44456 0 0H2.29249C2.29249 3.73755 2.79028 7.4385 3.75743 10.8915C4.72458 14.3446 6.14215 17.4821 7.92922 20.125C9.71628 22.7678 11.8378 24.8642 14.1727 26.2945C16.5076 27.7248 19.0102 28.461 21.5375 28.461C24.0648 28.461 26.5673 27.7248 28.9022 26.2945C31.2371 24.8642 33.3587 22.7678 35.1457 20.125C36.9328 17.4821 38.3504 14.3446 39.3175 10.8915C40.2847 7.4385 40.7825 3.73755 40.7825 0H43.075C43.0685 8.44455 40.7973 16.5405 36.7596 22.5117C32.722 28.4829 27.2476 31.8418 21.5375 31.8513Z" fill="#3F3D56"/>
<path d="M71.1468 10.9348H64.3972V20.9166H71.1468V10.9348Z" fill="#3F3D56"/>
<path d="M137.293 15.4265H82.9585V16.4247H137.293V15.4265Z" fill="#3F3D56"/>
<path d="M71.1468 86.0718H64.3972V96.0536H71.1468V86.0718Z" fill="#3F3D56"/>
<path d="M137.293 90.5635H82.9585V91.5617H137.293V90.5635Z" fill="#3F3D56"/>
<path d="M71.1468 160.686H64.3972V170.668H71.1468V160.686Z" fill="#3F3D56"/>
<path d="M137.293 165.178H82.9585V166.176H137.293V165.178Z" fill="#3F3D56"/>
<path d="M213.396 68.5471L204.774 78.5974L186.504 69.1018C186.504 69.1018 180.293 58.769 176.78 66.465C175.577 69.1008 183.457 73.9702 184.2 74.4228C186.058 75.5541 203.861 89.9979 205.605 88.1029C207.35 86.208 217.165 76.6235 217.165 76.6235L213.396 68.5471Z" fill="#A0616A"/>
<path d="M242.827 51.4026C234.656 46.8869 226.882 44.7504 220.58 51.4026V29.9333C220.58 27.773 220.868 25.6338 221.427 23.6379C221.986 21.6421 222.805 19.8286 223.838 18.301C224.871 16.7735 226.097 15.5617 227.447 14.735C228.796 13.9083 230.243 13.4828 231.704 13.4828H231.704C233.164 13.4828 234.611 13.9083 235.96 14.735C237.31 15.5617 238.536 16.7735 239.569 18.301C240.602 19.8286 241.421 21.6421 241.981 23.638C242.54 25.6338 242.827 27.773 242.827 29.9333L242.827 51.4026Z" fill="#2F2E41"/>
<path d="M222.295 98.3026L221.627 105.215C221.627 105.215 219.958 112.621 221.627 126.446L194.751 234.823L214.616 243.217L224.465 183.967L238.32 138.79L236.985 190.139L229.974 244.945L250.673 243.71L256.705 149.735C257.68 134.883 255.938 119.917 251.661 106.402C249.988 101.146 248.189 97.0044 246.556 96.4032C241.659 94.5995 222.295 98.3026 222.295 98.3026Z" fill="#2F2E41"/>
<path d="M197.255 234.082L190.411 244.945C190.411 244.945 177.223 255.067 186.571 256.301C195.919 257.535 199.091 252.104 199.091 252.104C199.091 252.104 210.776 250.87 210.609 248.401C210.442 245.932 209.608 237.785 209.608 237.785L197.255 234.082Z" fill="#2F2E41"/>
<path d="M234.397 236.702V244.355C234.397 244.355 234.564 247.564 234.397 248.304C234.23 249.045 231.726 258.179 240.073 256.204C248.419 254.229 245.081 246.576 245.081 246.576L243.078 235.467L234.397 236.702Z" fill="#2F2E41"/>
<path d="M231.601 44.9784C236.234 44.9784 239.989 39.4243 239.989 32.5731C239.989 25.7218 236.234 20.1677 231.601 20.1677C226.968 20.1677 223.213 25.7218 223.213 32.5731C223.213 39.4243 226.968 44.9784 231.601 44.9784Z" fill="#A0616A"/>
<path d="M237.402 39.4237C237.402 39.4237 236.233 55.7173 237.402 58.6797C238.571 61.6422 225.55 55.7173 225.55 55.7173C225.55 55.7173 228.388 44.608 227.386 40.1643C226.384 35.7206 237.402 39.4237 237.402 39.4237Z" fill="#A0616A"/>
<path d="M244.079 86.3294L246.75 97.1918L221.877 101.389C221.877 101.389 219.206 100.648 219.206 97.4386C219.206 94.2293 216.369 82.8732 216.369 82.8732C216.369 82.8732 209.418 74.5422 206.08 72.3203C204.869 71.5155 206.68 71.8479 207.698 68.4312C208.004 67.4042 208.369 66.3204 208.768 65.2218C209.094 64.3207 209.444 63.4073 209.803 62.5062C210.239 61.4077 210.688 60.3264 211.124 59.2969C212.442 56.1839 213.646 53.567 214.031 52.5079C215.2 49.2986 226.186 49.0122 226.186 49.0122C229.327 51.9352 238.404 52.5079 238.404 52.5079C238.404 52.5079 244.647 56.3715 247.248 59.2969C247.436 59.5067 244.079 86.3294 244.079 86.3294Z" fill="#E6E6E6"/>
<path d="M238.679 17.6809V17.3863L238.443 17.4057C237.098 15.8912 235.537 14.8494 233.88 14.3596C232.222 13.8697 230.511 13.9446 228.876 14.5785C230.443 15.1911 231.901 16.3048 233.145 17.841L225.105 18.5016L221.711 29.6544H224.008L225.859 24.6356V29.6544H233.627L234.155 25.7509L235.621 29.6544H237.147C237.157 29.9328 237.171 30.2091 237.171 30.4909L235.663 51.9602L242.827 47.4991V30.4909C242.829 28.0326 242.457 25.6053 241.739 23.3881C241.021 21.171 239.975 19.2206 238.679 17.6809Z" fill="#2F2E41"/>
<path d="M249.922 74.4795L249.421 93.9824L248.086 131.754C248.086 131.754 249.922 148.047 245.248 147.8C240.574 147.554 244.079 128.544 244.079 128.544L242.744 98.673L244.079 77.6888L249.922 74.4795Z" fill="#A0616A"/>
<path d="M251.257 85.0951C251.257 87.3169 242.827 86.6997 242.827 86.6997L238.404 52.5079C238.404 52.5079 244.647 56.3715 247.248 59.2969C247.86 60.2359 248.36 61.3209 248.728 62.5063C248.927 63.2987 249.116 64.2171 249.294 65.2219C249.471 66.2192 249.636 67.303 249.792 68.4312C250.52 73.9339 251.01 79.4999 251.257 85.0951Z" fill="#E6E6E6"/>
<path d="M21.3105 164.412L8.53287 162.455C8.63105 161.452 8.55567 160.428 8.31377 159.479C8.07186 158.531 7.67133 157.688 7.14956 157.03C6.6278 156.373 6.00184 155.921 5.33014 155.718C4.65845 155.516 3.96294 155.568 3.30857 155.87C2.65419 156.172 2.0623 156.715 1.58819 157.447C1.11408 158.18 0.773208 159.078 0.597415 160.058C0.421622 161.038 0.416646 162.068 0.582945 163.051C0.749244 164.035 1.08139 164.94 1.54838 165.682C1.07391 166.44 0.739726 167.366 0.578135 168.371C0.416544 169.376 0.433018 170.425 0.625964 171.418C0.81891 172.411 1.1818 173.313 1.67953 174.037C2.17726 174.762 2.79299 175.284 3.46716 175.554C4.14134 175.823 4.85114 175.831 5.52792 175.576C6.20469 175.321 6.82554 174.812 7.33041 174.099C7.83527 173.385 8.20707 172.491 8.40985 171.502C8.61263 170.514 8.63951 169.465 8.48791 168.457L21.3105 166.714V164.412Z" fill="#CCCCCC"/>
<path d="M34.304 177.399C39.3271 179.226 44.3874 173.957 44.6493 166.317C44.6565 166.105 44.6602 165.892 44.6602 165.677C44.6602 165.463 44.6566 165.249 44.6493 165.038C44.3874 157.398 39.3271 152.129 34.304 153.955L17.2632 160.152C16.7723 160.152 16.2861 160.294 15.8324 160.571C15.3787 160.849 14.9665 161.256 14.6192 161.769C14.2719 162.282 13.9964 162.891 13.8084 163.562C13.6204 164.232 13.5237 164.951 13.5237 165.677C13.5237 166.403 13.6204 167.122 13.8084 167.793C13.9964 168.464 14.2719 169.073 14.6192 169.586C14.9665 170.099 15.3787 170.506 15.8324 170.783C16.2861 171.061 16.7723 171.203 17.2632 171.202L34.304 177.399Z" fill="#7EB685"/>
</g>
<defs>
<clipPath id="clip0_1_184">
<rect width="259" height="259" fill="white"/>
</clipPath>
</defs>
</svg>
