<svg width="206" height="93" viewBox="0 0 206 93" fill="none" xmlns="http://www.w3.org/2000/svg">
<g filter="url(#filter0_d_247_121)">
<rect x="16" y="14.8863" width="174" height="59.9899" rx="29.995" fill="white" shape-rendering="crispEdges"/>
<circle cx="56" cy="44.8812" r="20" fill="#6EC6AD"/>
<path d="M52.9999 49.0512L49.5299 45.5812C49.3429 45.3943 49.0893 45.2892 48.8249 45.2892C48.5605 45.2892 48.3069 45.3943 48.1199 45.5812C47.9329 45.7682 47.8279 46.0218 47.8279 46.2862C47.8279 46.4172 47.8537 46.5468 47.9038 46.6678C47.9539 46.7887 48.0273 46.8987 48.1199 46.9912L52.2999 51.1712C52.6899 51.5612 53.3199 51.5612 53.7099 51.1712L64.2899 40.5912C64.4769 40.4043 64.5819 40.1507 64.5819 39.8862C64.5819 39.6218 64.4769 39.3682 64.2899 39.1812C64.1029 38.9943 63.8493 38.8892 63.5849 38.8892C63.3205 38.8892 63.0669 38.9943 62.8799 39.1812L52.9999 49.0512Z" fill="white"/>
<path d="M95.29 42.0612C93.97 42.0612 92.836 41.7972 91.888 41.2692C90.952 40.7292 90.232 39.9732 89.728 39.0012C89.224 38.0172 88.972 36.8592 88.972 35.5272C88.972 34.5312 89.116 33.6372 89.404 32.8452C89.692 32.0412 90.106 31.3572 90.646 30.7932C91.186 30.2172 91.846 29.7792 92.626 29.4792C93.418 29.1672 94.306 29.0112 95.29 29.0112C95.95 29.0112 96.598 29.0952 97.234 29.2632C97.87 29.4312 98.428 29.6712 98.908 29.9832C99.16 30.1392 99.328 30.3312 99.412 30.5592C99.496 30.7752 99.514 30.9912 99.466 31.2072C99.418 31.4112 99.316 31.5852 99.16 31.7292C99.016 31.8732 98.83 31.9572 98.602 31.9812C98.386 31.9932 98.146 31.9152 97.882 31.7472C97.51 31.5072 97.108 31.3332 96.676 31.2252C96.244 31.1172 95.806 31.0632 95.362 31.0632C94.51 31.0632 93.79 31.2372 93.202 31.5852C92.614 31.9332 92.17 32.4372 91.87 33.0972C91.57 33.7572 91.42 34.5672 91.42 35.5272C91.42 36.4752 91.57 37.2852 91.87 37.9572C92.17 38.6292 92.614 39.1392 93.202 39.4872C93.79 39.8352 94.51 40.0092 95.362 40.0092C95.818 40.0092 96.268 39.9552 96.712 39.8472C97.156 39.7272 97.576 39.5472 97.972 39.3072C98.236 39.1512 98.47 39.0852 98.674 39.1092C98.89 39.1212 99.07 39.1932 99.214 39.3252C99.358 39.4572 99.454 39.6252 99.502 39.8292C99.55 40.0212 99.538 40.2252 99.466 40.4412C99.394 40.6452 99.25 40.8252 99.034 40.9812C98.554 41.3292 97.978 41.5992 97.306 41.7912C96.646 41.9712 95.974 42.0612 95.29 42.0612ZM105.506 42.0612C104.594 42.0612 103.802 41.8752 103.13 41.5032C102.458 41.1312 101.936 40.6032 101.564 39.9192C101.192 39.2232 101.006 38.4072 101.006 37.4712C101.006 36.7632 101.108 36.1332 101.312 35.5812C101.528 35.0172 101.834 34.5372 102.23 34.1412C102.626 33.7332 103.1 33.4272 103.652 33.2232C104.204 33.0072 104.822 32.8992 105.506 32.8992C106.418 32.8992 107.21 33.0852 107.882 33.4572C108.554 33.8292 109.076 34.3572 109.448 35.0412C109.82 35.7252 110.006 36.5352 110.006 37.4712C110.006 38.1792 109.898 38.8152 109.682 39.3792C109.478 39.9432 109.178 40.4292 108.782 40.8372C108.386 41.2332 107.912 41.5392 107.36 41.7552C106.808 41.9592 106.19 42.0612 105.506 42.0612ZM105.506 40.3512C105.95 40.3512 106.34 40.2432 106.676 40.0272C107.012 39.8112 107.27 39.4932 107.45 39.0732C107.642 38.6412 107.738 38.1072 107.738 37.4712C107.738 36.5112 107.534 35.7972 107.126 35.3292C106.718 34.8492 106.178 34.6092 105.506 34.6092C105.062 34.6092 104.672 34.7172 104.336 34.9332C104 35.1372 103.736 35.4552 103.544 35.8872C103.364 36.3072 103.274 36.8352 103.274 37.4712C103.274 38.4192 103.478 39.1392 103.886 39.6312C104.294 40.1112 104.834 40.3512 105.506 40.3512ZM113.735 42.0252C113.375 42.0252 113.099 41.9292 112.907 41.7372C112.715 41.5332 112.619 41.2452 112.619 40.8732V34.0692C112.619 33.6972 112.715 33.4152 112.907 33.2232C113.099 33.0312 113.369 32.9352 113.717 32.9352C114.065 32.9352 114.335 33.0312 114.527 33.2232C114.719 33.4152 114.815 33.6972 114.815 34.0692V35.3832L114.617 34.8432C114.857 34.2432 115.229 33.7692 115.733 33.4212C116.237 33.0732 116.837 32.8992 117.533 32.8992C118.241 32.8992 118.823 33.0672 119.279 33.4032C119.735 33.7392 120.053 34.2552 120.233 34.9512H119.981C120.221 34.3152 120.617 33.8172 121.169 33.4572C121.721 33.0852 122.357 32.8992 123.077 32.8992C123.749 32.8992 124.301 33.0312 124.733 33.2952C125.177 33.5592 125.507 33.9612 125.723 34.5012C125.939 35.0292 126.047 35.7012 126.047 36.5172V40.8732C126.047 41.2452 125.945 41.5332 125.741 41.7372C125.549 41.9292 125.273 42.0252 124.913 42.0252C124.553 42.0252 124.277 41.9292 124.085 41.7372C123.893 41.5332 123.797 41.2452 123.797 40.8732V36.6072C123.797 35.9352 123.683 35.4432 123.455 35.1312C123.239 34.8192 122.867 34.6632 122.339 34.6632C121.751 34.6632 121.289 34.8732 120.953 35.2932C120.617 35.7012 120.449 36.2712 120.449 37.0032V40.8732C120.449 41.2452 120.353 41.5332 120.161 41.7372C119.969 41.9292 119.693 42.0252 119.333 42.0252C118.973 42.0252 118.691 41.9292 118.487 41.7372C118.295 41.5332 118.199 41.2452 118.199 40.8732V36.6072C118.199 35.9352 118.085 35.4432 117.857 35.1312C117.641 34.8192 117.275 34.6632 116.759 34.6632C116.171 34.6632 115.709 34.8732 115.373 35.2932C115.037 35.7012 114.869 36.2712 114.869 37.0032V40.8732C114.869 41.6412 114.491 42.0252 113.735 42.0252ZM130.204 45.2652C129.844 45.2652 129.568 45.1692 129.376 44.9772C129.184 44.7852 129.088 44.5032 129.088 44.1312V34.0692C129.088 33.6972 129.184 33.4152 129.376 33.2232C129.568 33.0312 129.838 32.9352 130.186 32.9352C130.546 32.9352 130.822 33.0312 131.014 33.2232C131.206 33.4152 131.302 33.6972 131.302 34.0692V35.4732L131.104 34.9332C131.284 34.3212 131.65 33.8292 132.202 33.4572C132.766 33.0852 133.42 32.8992 134.164 32.8992C134.932 32.8992 135.604 33.0852 136.18 33.4572C136.768 33.8292 137.224 34.3572 137.548 35.0412C137.872 35.7132 138.034 36.5232 138.034 37.4712C138.034 38.4072 137.872 39.2232 137.548 39.9192C137.224 40.6032 136.774 41.1312 136.198 41.5032C135.622 41.8752 134.944 42.0612 134.164 42.0612C133.432 42.0612 132.79 41.8812 132.238 41.5212C131.686 41.1492 131.314 40.6692 131.122 40.0812H131.338V44.1312C131.338 44.5032 131.236 44.7852 131.032 44.9772C130.84 45.1692 130.564 45.2652 130.204 45.2652ZM133.534 40.3512C133.978 40.3512 134.368 40.2432 134.704 40.0272C135.04 39.8112 135.298 39.4932 135.478 39.0732C135.67 38.6412 135.766 38.1072 135.766 37.4712C135.766 36.5112 135.562 35.7972 135.154 35.3292C134.746 34.8492 134.206 34.6092 133.534 34.6092C133.09 34.6092 132.7 34.7172 132.364 34.9332C132.028 35.1372 131.764 35.4552 131.572 35.8872C131.392 36.3072 131.302 36.8352 131.302 37.4712C131.302 38.4192 131.506 39.1392 131.914 39.6312C132.322 40.1112 132.862 40.3512 133.534 40.3512ZM141.753 42.0252C141.381 42.0252 141.093 41.9292 140.889 41.7372C140.697 41.5332 140.601 41.2452 140.601 40.8732V34.0692C140.601 33.6972 140.697 33.4152 140.889 33.2232C141.081 33.0312 141.351 32.9352 141.699 32.9352C142.047 32.9352 142.317 33.0312 142.509 33.2232C142.701 33.4152 142.797 33.6972 142.797 34.0692V35.2032H142.617C142.785 34.4832 143.115 33.9372 143.607 33.5652C144.099 33.1932 144.753 32.9712 145.569 32.8992C145.821 32.8752 146.019 32.9412 146.163 33.0972C146.319 33.2412 146.409 33.4692 146.433 33.7812C146.457 34.0812 146.385 34.3272 146.217 34.5192C146.061 34.6992 145.821 34.8072 145.497 34.8432L145.101 34.8792C144.369 34.9512 143.817 35.1792 143.445 35.5632C143.073 35.9352 142.887 36.4632 142.887 37.1472V40.8732C142.887 41.2452 142.791 41.5332 142.599 41.7372C142.407 41.9292 142.125 42.0252 141.753 42.0252ZM151.18 42.0612C150.544 42.0612 149.974 41.9412 149.47 41.7012C148.978 41.4492 148.588 41.1132 148.3 40.6932C148.024 40.2732 147.886 39.7992 147.886 39.2712C147.886 38.6232 148.054 38.1132 148.39 37.7412C148.726 37.3572 149.272 37.0812 150.028 36.9132C150.784 36.7452 151.798 36.6612 153.07 36.6612H153.97V37.9572H153.088C152.344 37.9572 151.75 37.9932 151.306 38.0652C150.862 38.1372 150.544 38.2632 150.352 38.4432C150.172 38.6112 150.082 38.8512 150.082 39.1632C150.082 39.5592 150.22 39.8832 150.496 40.1352C150.772 40.3872 151.156 40.5132 151.648 40.5132C152.044 40.5132 152.392 40.4232 152.692 40.2432C153.004 40.0512 153.25 39.7932 153.43 39.4692C153.61 39.1452 153.7 38.7732 153.7 38.3532V36.2832C153.7 35.6832 153.568 35.2512 153.304 34.9872C153.04 34.7232 152.596 34.5912 151.972 34.5912C151.624 34.5912 151.246 34.6332 150.838 34.7172C150.442 34.8012 150.022 34.9452 149.578 35.1492C149.35 35.2572 149.146 35.2872 148.966 35.2392C148.798 35.1912 148.666 35.0952 148.57 34.9512C148.474 34.7952 148.426 34.6272 148.426 34.4472C148.426 34.2672 148.474 34.0932 148.57 33.9252C148.666 33.7452 148.828 33.6132 149.056 33.5292C149.608 33.3012 150.136 33.1392 150.64 33.0432C151.156 32.9472 151.624 32.8992 152.044 32.8992C152.908 32.8992 153.616 33.0312 154.168 33.2952C154.732 33.5592 155.152 33.9612 155.428 34.5012C155.704 35.0292 155.842 35.7132 155.842 36.5532V40.8732C155.842 41.2452 155.752 41.5332 155.572 41.7372C155.392 41.9292 155.134 42.0252 154.798 42.0252C154.462 42.0252 154.198 41.9292 154.006 41.7372C153.826 41.5332 153.736 41.2452 153.736 40.8732V40.0092H153.88C153.796 40.4292 153.628 40.7952 153.376 41.1072C153.136 41.4072 152.83 41.6412 152.458 41.8092C152.086 41.9772 151.66 42.0612 151.18 42.0612ZM90.322 60.0252C89.95 60.0252 89.662 59.9292 89.458 59.7372C89.266 59.5332 89.17 59.2452 89.17 58.8732V52.0692C89.17 51.6972 89.266 51.4152 89.458 51.2232C89.65 51.0312 89.92 50.9352 90.268 50.9352C90.616 50.9352 90.886 51.0312 91.078 51.2232C91.27 51.4152 91.366 51.6972 91.366 52.0692V53.2032H91.186C91.354 52.4832 91.684 51.9372 92.176 51.5652C92.668 51.1932 93.322 50.9712 94.138 50.8992C94.39 50.8752 94.588 50.9412 94.732 51.0972C94.888 51.2412 94.978 51.4692 95.002 51.7812C95.026 52.0812 94.954 52.3272 94.786 52.5192C94.63 52.6992 94.39 52.8072 94.066 52.8432L93.67 52.8792C92.938 52.9512 92.386 53.1792 92.014 53.5632C91.642 53.9352 91.456 54.4632 91.456 55.1472V58.8732C91.456 59.2452 91.36 59.5332 91.168 59.7372C90.976 59.9292 90.694 60.0252 90.322 60.0252ZM101.136 60.0612C100.14 60.0612 99.2822 59.8752 98.5622 59.5032C97.8422 59.1312 97.2842 58.6032 96.8882 57.9192C96.5042 57.2352 96.3122 56.4252 96.3122 55.4892C96.3122 54.5772 96.4982 53.7792 96.8702 53.0952C97.2542 52.4112 97.7762 51.8772 98.4362 51.4932C99.1082 51.0972 99.8702 50.8992 100.722 50.8992C101.346 50.8992 101.904 51.0012 102.396 51.2052C102.9 51.4092 103.326 51.7032 103.674 52.0872C104.034 52.4712 104.304 52.9392 104.484 53.4912C104.676 54.0312 104.772 54.6432 104.772 55.3272C104.772 55.5432 104.694 55.7112 104.538 55.8312C104.394 55.9392 104.184 55.9932 103.908 55.9932H98.1302V54.6972H103.188L102.9 54.9672C102.9 54.4152 102.816 53.9532 102.648 53.5812C102.492 53.2092 102.258 52.9272 101.946 52.7352C101.646 52.5312 101.268 52.4292 100.812 52.4292C100.308 52.4292 99.8762 52.5492 99.5162 52.7892C99.1682 53.0172 98.8982 53.3472 98.7062 53.7792C98.5262 54.1992 98.4362 54.7032 98.4362 55.2912V55.4172C98.4362 56.4012 98.6642 57.1392 99.1202 57.6312C99.5882 58.1112 100.272 58.3512 101.172 58.3512C101.484 58.3512 101.832 58.3152 102.216 58.2432C102.612 58.1592 102.984 58.0212 103.332 57.8292C103.584 57.6852 103.806 57.6252 103.998 57.6492C104.19 57.6612 104.34 57.7272 104.448 57.8472C104.568 57.9672 104.64 58.1172 104.664 58.2972C104.688 58.4652 104.652 58.6392 104.556 58.8192C104.472 58.9992 104.322 59.1552 104.106 59.2872C103.686 59.5512 103.2 59.7492 102.648 59.8812C102.108 60.0012 101.604 60.0612 101.136 60.0612ZM110.172 60.0612C109.536 60.0612 108.966 59.9412 108.462 59.7012C107.97 59.4492 107.58 59.1132 107.292 58.6932C107.016 58.2732 106.878 57.7992 106.878 57.2712C106.878 56.6232 107.046 56.1132 107.382 55.7412C107.718 55.3572 108.264 55.0812 109.02 54.9132C109.776 54.7452 110.79 54.6612 112.062 54.6612H112.962V55.9572H112.08C111.336 55.9572 110.742 55.9932 110.298 56.0652C109.854 56.1372 109.536 56.2632 109.344 56.4432C109.164 56.6112 109.074 56.8512 109.074 57.1632C109.074 57.5592 109.212 57.8832 109.488 58.1352C109.764 58.3872 110.148 58.5132 110.64 58.5132C111.036 58.5132 111.384 58.4232 111.684 58.2432C111.996 58.0512 112.242 57.7932 112.422 57.4692C112.602 57.1452 112.692 56.7732 112.692 56.3532V54.2832C112.692 53.6832 112.56 53.2512 112.296 52.9872C112.032 52.7232 111.588 52.5912 110.964 52.5912C110.616 52.5912 110.238 52.6332 109.83 52.7172C109.434 52.8012 109.014 52.9452 108.57 53.1492C108.342 53.2572 108.138 53.2872 107.958 53.2392C107.79 53.1912 107.658 53.0952 107.562 52.9512C107.466 52.7952 107.418 52.6272 107.418 52.4472C107.418 52.2672 107.466 52.0932 107.562 51.9252C107.658 51.7452 107.82 51.6132 108.048 51.5292C108.6 51.3012 109.128 51.1392 109.632 51.0432C110.148 50.9472 110.616 50.8992 111.036 50.8992C111.9 50.8992 112.608 51.0312 113.16 51.2952C113.724 51.5592 114.144 51.9612 114.42 52.5012C114.696 53.0292 114.834 53.7132 114.834 54.5532V58.8732C114.834 59.2452 114.744 59.5332 114.564 59.7372C114.384 59.9292 114.126 60.0252 113.79 60.0252C113.454 60.0252 113.19 59.9292 112.998 59.7372C112.818 59.5332 112.728 59.2452 112.728 58.8732V58.0092H112.872C112.788 58.4292 112.62 58.7952 112.368 59.1072C112.128 59.4072 111.822 59.6412 111.45 59.8092C111.078 59.9772 110.652 60.0612 110.172 60.0612ZM120.844 60.0612C119.848 60.0612 119.098 59.7792 118.594 59.2152C118.09 58.6392 117.838 57.7992 117.838 56.6952V48.1812C117.838 47.8092 117.934 47.5272 118.126 47.3352C118.318 47.1432 118.594 47.0472 118.954 47.0472C119.314 47.0472 119.59 47.1432 119.782 47.3352C119.986 47.5272 120.088 47.8092 120.088 48.1812V56.5872C120.088 57.1392 120.202 57.5472 120.43 57.8112C120.67 58.0752 121.006 58.2072 121.438 58.2072C121.534 58.2072 121.624 58.2072 121.708 58.2072C121.792 58.1952 121.876 58.1832 121.96 58.1712C122.128 58.1472 122.242 58.1952 122.302 58.3152C122.362 58.4232 122.392 58.6512 122.392 58.9992C122.392 59.2992 122.332 59.5332 122.212 59.7012C122.092 59.8692 121.894 59.9712 121.618 60.0072C121.498 60.0192 121.372 60.0312 121.24 60.0432C121.108 60.0552 120.976 60.0612 120.844 60.0612ZM125.422 60.0072C125.062 60.0072 124.786 59.8992 124.594 59.6832C124.402 59.4672 124.306 59.1672 124.306 58.7832V52.1772C124.306 51.7812 124.402 51.4812 124.594 51.2772C124.786 51.0612 125.062 50.9532 125.422 50.9532C125.782 50.9532 126.058 51.0612 126.25 51.2772C126.454 51.4812 126.556 51.7812 126.556 52.1772V58.7832C126.556 59.1672 126.46 59.4672 126.268 59.6832C126.076 59.8992 125.794 60.0072 125.422 60.0072ZM125.422 49.2792C125.002 49.2792 124.672 49.1772 124.432 48.9732C124.204 48.7572 124.09 48.4632 124.09 48.0912C124.09 47.7072 124.204 47.4132 124.432 47.2092C124.672 47.0052 125.002 46.9032 125.422 46.9032C125.854 46.9032 126.184 47.0052 126.412 47.2092C126.64 47.4132 126.754 47.7072 126.754 48.0912C126.754 48.4632 126.64 48.7572 126.412 48.9732C126.184 49.1772 125.854 49.2792 125.422 49.2792ZM130.154 59.8812C129.926 59.8812 129.734 59.8272 129.578 59.7192C129.434 59.5992 129.338 59.4492 129.29 59.2692C129.242 59.0892 129.242 58.8972 129.29 58.6932C129.35 58.4772 129.464 58.2732 129.632 58.0812L134.294 52.2312V52.7712H130.046C129.77 52.7712 129.554 52.6992 129.398 52.5552C129.254 52.3992 129.182 52.1892 129.182 51.9252C129.182 51.6492 129.254 51.4392 129.398 51.2952C129.554 51.1512 129.77 51.0792 130.046 51.0792H135.374C135.638 51.0792 135.854 51.1392 136.022 51.2592C136.19 51.3672 136.298 51.5112 136.346 51.6912C136.406 51.8712 136.412 52.0632 136.364 52.2672C136.316 52.4712 136.208 52.6632 136.04 52.8432L131.288 58.7832V58.1892H135.788C136.364 58.1892 136.652 58.4712 136.652 59.0352C136.652 59.2992 136.574 59.5092 136.418 59.6652C136.274 59.8092 136.064 59.8812 135.788 59.8812H130.154ZM141.669 60.0612C141.033 60.0612 140.463 59.9412 139.959 59.7012C139.467 59.4492 139.077 59.1132 138.789 58.6932C138.513 58.2732 138.375 57.7992 138.375 57.2712C138.375 56.6232 138.543 56.1132 138.879 55.7412C139.215 55.3572 139.761 55.0812 140.517 54.9132C141.273 54.7452 142.287 54.6612 143.559 54.6612H144.459V55.9572H143.577C142.833 55.9572 142.239 55.9932 141.795 56.0652C141.351 56.1372 141.033 56.2632 140.841 56.4432C140.661 56.6112 140.571 56.8512 140.571 57.1632C140.571 57.5592 140.709 57.8832 140.985 58.1352C141.261 58.3872 141.645 58.5132 142.137 58.5132C142.533 58.5132 142.881 58.4232 143.181 58.2432C143.493 58.0512 143.739 57.7932 143.919 57.4692C144.099 57.1452 144.189 56.7732 144.189 56.3532V54.2832C144.189 53.6832 144.057 53.2512 143.793 52.9872C143.529 52.7232 143.085 52.5912 142.461 52.5912C142.113 52.5912 141.735 52.6332 141.327 52.7172C140.931 52.8012 140.511 52.9452 140.067 53.1492C139.839 53.2572 139.635 53.2872 139.455 53.2392C139.287 53.1912 139.155 53.0952 139.059 52.9512C138.963 52.7952 138.915 52.6272 138.915 52.4472C138.915 52.2672 138.963 52.0932 139.059 51.9252C139.155 51.7452 139.317 51.6132 139.545 51.5292C140.097 51.3012 140.625 51.1392 141.129 51.0432C141.645 50.9472 142.113 50.8992 142.533 50.8992C143.397 50.8992 144.105 51.0312 144.657 51.2952C145.221 51.5592 145.641 51.9612 145.917 52.5012C146.193 53.0292 146.331 53.7132 146.331 54.5532V58.8732C146.331 59.2452 146.241 59.5332 146.061 59.7372C145.881 59.9292 145.623 60.0252 145.287 60.0252C144.951 60.0252 144.687 59.9292 144.495 59.7372C144.315 59.5332 144.225 59.2452 144.225 58.8732V58.0092H144.369C144.285 58.4292 144.117 58.7952 143.865 59.1072C143.625 59.4072 143.319 59.6412 142.947 59.8092C142.575 59.9772 142.149 60.0612 141.669 60.0612ZM152.719 60.0612C151.951 60.0612 151.273 59.8752 150.685 59.5032C150.109 59.1312 149.659 58.6032 149.335 57.9192C149.011 57.2232 148.849 56.4072 148.849 55.4712C148.849 54.5232 149.011 53.7132 149.335 53.0412C149.659 52.3572 150.109 51.8292 150.685 51.4572C151.273 51.0852 151.951 50.8992 152.719 50.8992C153.451 50.8992 154.087 51.0792 154.627 51.4392C155.179 51.7992 155.551 52.2732 155.743 52.8612H155.545V48.1812C155.545 47.8092 155.641 47.5272 155.833 47.3352C156.025 47.1432 156.301 47.0472 156.661 47.0472C157.021 47.0472 157.297 47.1432 157.489 47.3352C157.693 47.5272 157.795 47.8092 157.795 48.1812V58.8732C157.795 59.2452 157.699 59.5332 157.507 59.7372C157.315 59.9292 157.039 60.0252 156.679 60.0252C156.319 60.0252 156.043 59.9292 155.851 59.7372C155.659 59.5332 155.563 59.2452 155.563 58.8732V57.4692L155.761 58.0092C155.581 58.6332 155.215 59.1312 154.663 59.5032C154.111 59.8752 153.463 60.0612 152.719 60.0612ZM153.349 58.3512C153.793 58.3512 154.183 58.2432 154.519 58.0272C154.855 57.8112 155.113 57.4932 155.293 57.0732C155.485 56.6412 155.581 56.1072 155.581 55.4712C155.581 54.5112 155.377 53.7972 154.969 53.3292C154.561 52.8492 154.021 52.6092 153.349 52.6092C152.905 52.6092 152.515 52.7172 152.179 52.9332C151.843 53.1372 151.579 53.4552 151.387 53.8872C151.207 54.3072 151.117 54.8352 151.117 55.4712C151.117 56.4192 151.321 57.1392 151.729 57.6312C152.137 58.1112 152.677 58.3512 153.349 58.3512ZM163.746 60.0612C163.11 60.0612 162.54 59.9412 162.036 59.7012C161.544 59.4492 161.154 59.1132 160.866 58.6932C160.59 58.2732 160.452 57.7992 160.452 57.2712C160.452 56.6232 160.62 56.1132 160.956 55.7412C161.292 55.3572 161.838 55.0812 162.594 54.9132C163.35 54.7452 164.364 54.6612 165.636 54.6612H166.536V55.9572H165.654C164.91 55.9572 164.316 55.9932 163.872 56.0652C163.428 56.1372 163.11 56.2632 162.918 56.4432C162.738 56.6112 162.648 56.8512 162.648 57.1632C162.648 57.5592 162.786 57.8832 163.062 58.1352C163.338 58.3872 163.722 58.5132 164.214 58.5132C164.61 58.5132 164.958 58.4232 165.258 58.2432C165.57 58.0512 165.816 57.7932 165.996 57.4692C166.176 57.1452 166.266 56.7732 166.266 56.3532V54.2832C166.266 53.6832 166.134 53.2512 165.87 52.9872C165.606 52.7232 165.162 52.5912 164.538 52.5912C164.19 52.5912 163.812 52.6332 163.404 52.7172C163.008 52.8012 162.588 52.9452 162.144 53.1492C161.916 53.2572 161.712 53.2872 161.532 53.2392C161.364 53.1912 161.232 53.0952 161.136 52.9512C161.04 52.7952 160.992 52.6272 160.992 52.4472C160.992 52.2672 161.04 52.0932 161.136 51.9252C161.232 51.7452 161.394 51.6132 161.622 51.5292C162.174 51.3012 162.702 51.1392 163.206 51.0432C163.722 50.9472 164.19 50.8992 164.61 50.8992C165.474 50.8992 166.182 51.0312 166.734 51.2952C167.298 51.5592 167.718 51.9612 167.994 52.5012C168.27 53.0292 168.408 53.7132 168.408 54.5532V58.8732C168.408 59.2452 168.318 59.5332 168.138 59.7372C167.958 59.9292 167.7 60.0252 167.364 60.0252C167.028 60.0252 166.764 59.9292 166.572 59.7372C166.392 59.5332 166.302 59.2452 166.302 58.8732V58.0092H166.446C166.362 58.4292 166.194 58.7952 165.942 59.1072C165.702 59.4072 165.396 59.6412 165.024 59.8092C164.652 59.9772 164.226 60.0612 163.746 60.0612Z" fill="#323232"/>
</g>
<defs>
<filter id="filter0_d_247_121" x="0" y="0.886292" width="206" height="91.9899" filterUnits="userSpaceOnUse" color-interpolation-filters="sRGB">
<feFlood flood-opacity="0" result="BackgroundImageFix"/>
<feColorMatrix in="SourceAlpha" type="matrix" values="0 0 0 0 0 0 0 0 0 0 0 0 0 0 0 0 0 0 127 0" result="hardAlpha"/>
<feOffset dy="2"/>
<feGaussianBlur stdDeviation="8"/>
<feComposite in2="hardAlpha" operator="out"/>
<feColorMatrix type="matrix" values="0 0 0 0 1 0 0 0 0 0.258093 0 0 0 0 0.179167 0 0 0 0.12 0"/>
<feBlend mode="normal" in2="BackgroundImageFix" result="effect1_dropShadow_247_121"/>
<feBlend mode="normal" in="SourceGraphic" in2="effect1_dropShadow_247_121" result="shape"/>
</filter>
</defs>
</svg>
