<svg width="260" height="259" viewBox="0 0 260 259" fill="none" xmlns="http://www.w3.org/2000/svg">
<g clip-path="url(#clip0_1_101)">
<path d="M69.4835 157.454C68.7862 157.454 68.0818 157.441 67.3903 157.415L67.406 156.817C68.3989 156.854 69.4121 156.864 70.4096 156.848L70.4165 157.447C70.106 157.452 69.795 157.454 69.4835 157.454ZM73.4409 157.316L73.4115 156.718C74.4058 156.648 75.4129 156.55 76.4047 156.426L76.4572 157.021C75.4578 157.146 74.4431 157.245 73.4409 157.316ZM64.3686 157.222C63.3659 157.131 62.3527 157.011 61.3569 156.865L61.4183 156.271C62.4065 156.415 63.4118 156.535 64.4069 156.625L64.3686 157.222ZM79.4588 156.564L79.3835 155.972C80.3714 155.794 81.367 155.586 82.3416 155.356L82.4396 155.943C81.4573 156.175 80.4544 156.384 79.4588 156.564ZM58.3626 156.345C57.3721 156.145 56.3722 155.915 55.3909 155.662L55.4975 155.076C56.4714 155.328 57.4635 155.556 58.4465 155.755L58.3626 156.345ZM85.3938 155.159L85.2731 154.578C86.2428 154.292 87.218 153.977 88.1716 153.64L88.3144 154.214C87.3535 154.553 86.371 154.871 85.3938 155.159ZM52.4491 154.816C51.4774 154.508 50.4997 154.169 49.5429 153.809L49.6944 153.238C50.6439 153.596 51.6142 153.932 52.5782 154.237L52.4491 154.816ZM91.1953 153.109L91.0303 152.544C91.9714 152.154 92.9178 151.733 93.8439 151.292L94.0304 151.848C93.0975 152.292 92.1437 152.717 91.1953 153.109H91.1953ZM46.6714 152.64C45.7278 152.227 44.7783 151.781 43.8495 151.316L44.0446 150.764C44.9663 151.226 45.9084 151.668 46.8449 152.078L46.6714 152.64ZM96.8075 150.435L96.5993 149.89C97.5031 149.401 98.4115 148.879 99.2993 148.338L99.528 148.871C98.6334 149.416 97.7181 149.942 96.8075 150.435H96.8075ZM102.186 147.16L101.937 146.641C102.804 146.052 103.669 145.432 104.508 144.8L104.776 145.306C103.931 145.943 103.059 146.567 102.186 147.16H102.186ZM107.294 143.312L107.006 142.821C107.822 142.142 108.637 141.431 109.427 140.708L109.733 141.182C108.937 141.911 108.116 142.628 107.294 143.312ZM30.6788 142.469C29.8675 141.767 29.057 141.031 28.2697 140.283L28.5834 139.815C29.3646 140.558 30.169 141.288 30.974 141.984L30.6788 142.469ZM112.089 138.923L111.765 138.465C112.525 137.7 113.282 136.904 114.015 136.097L114.356 136.537C113.618 137.35 112.855 138.152 112.089 138.923H112.089ZM25.9473 137.969C25.1916 137.181 24.4409 136.361 23.7161 135.532L24.0642 135.1C24.7836 135.923 25.5285 136.737 26.2784 137.519L25.9473 137.969ZM116.531 134.029L116.173 133.609C116.874 132.763 117.568 131.887 118.234 131.006L118.608 131.407C117.936 132.294 117.237 133.177 116.531 134.029ZM21.5809 132.978C20.8877 132.11 20.203 131.212 19.5459 130.311L19.9256 129.919C20.5777 130.813 21.2571 131.704 21.9452 132.565L21.5809 132.978ZM120.582 128.674L120.194 128.294C120.827 127.375 121.451 126.428 122.048 125.477L122.451 125.835C121.849 126.794 121.221 127.749 120.582 128.674L120.582 128.674ZM17.6153 127.537C16.9928 126.6 16.3797 125.633 15.7932 124.662L16.2012 124.312C16.7832 125.276 17.3916 126.236 18.0095 127.166L17.6153 127.537ZM124.209 122.898L123.793 122.562C124.354 121.579 124.903 120.567 125.425 119.554L125.853 119.868C125.327 120.888 124.774 121.908 124.209 122.898L124.209 122.898ZM14.0837 121.692C13.536 120.692 12.9999 119.663 12.4902 118.633L12.9232 118.329C13.4291 119.351 13.9611 120.372 14.5046 121.365L14.0837 121.692ZM127.379 116.75L126.94 116.46C127.422 115.42 127.891 114.352 128.334 113.285L128.784 113.551C128.338 114.625 127.866 115.702 127.379 116.75ZM130.064 110.277L129.604 110.037C130.004 108.948 130.389 107.832 130.747 106.721L131.216 106.936C130.855 108.055 130.467 109.179 130.064 110.277ZM8.43969 108.986C8.05434 107.884 7.6853 106.757 7.3429 105.636L7.81539 105.431C8.15509 106.544 8.5213 107.662 8.90359 108.755L8.43969 108.986ZM132.238 103.533L131.76 103.345C132.074 102.219 132.37 101.068 132.64 99.9244L133.124 100.086C132.852 101.239 132.554 102.399 132.238 103.533ZM6.3746 102.221C6.07552 101.08 5.79448 99.9144 5.53934 98.7562L6.02557 98.6042C6.27875 99.7537 6.55771 100.91 6.85445 102.043L6.3746 102.221ZM133.876 96.5948L133.386 96.4591C133.611 95.3053 133.817 94.127 133.998 92.9574L134.492 93.0655C134.31 94.2445 134.103 95.4316 133.876 96.5948V96.5948ZM4.83932 95.2495C4.62971 94.0802 4.43998 92.8889 4.27552 91.7082L4.77134 91.61C4.93468 92.7819 5.12294 93.9641 5.33096 95.1244L4.83932 95.2495ZM134.971 89.507L134.473 89.4258C134.608 88.2532 134.723 87.0576 134.813 85.8719L135.313 85.9257C135.223 87.1208 135.107 88.3254 134.971 89.507V89.507ZM3.84869 88.1401C3.73014 86.955 3.63281 85.748 3.5593 84.5527L4.06076 84.5088C4.13353 85.6954 4.23024 86.893 4.34793 88.0694L3.84869 88.1401ZM135.518 82.3301L135.016 82.3032C135.061 81.117 135.083 79.9137 135.083 78.7272H135.586C135.586 79.9228 135.563 81.1351 135.518 82.3301ZM3.407 80.9527C3.38982 80.2186 3.38111 79.4697 3.38098 78.7272C3.38098 78.2665 3.3843 77.8066 3.39092 77.3477L3.8936 77.3582C3.88698 77.8137 3.88366 78.27 3.88366 78.7272C3.88379 79.4641 3.8925 80.2075 3.90943 80.9363L3.407 80.9527ZM4.01289 73.7841L3.51119 73.7467C3.57391 72.5505 3.66055 71.3423 3.76842 70.1556L4.26816 70.22C4.16102 71.3978 4.07523 72.5968 4.01288 73.7841H4.01289ZM134.759 70.1316C134.658 68.9513 134.52 68.3759 134.375 67.2007L134.872 67.1133C135.019 68.2974 135.145 69.2013 135.246 70.3904L134.759 70.1316ZM4.65952 66.6738L4.16273 66.5823C4.31675 65.3979 4.49568 64.2042 4.69462 63.0339L5.18725 63.1526C4.9899 64.314 4.81231 65.4987 4.65952 66.6738ZM133.867 63.6757C133.675 62.5079 133.459 61.3323 133.224 60.1817L133.713 60.0402C133.949 61.1995 134.167 62.3842 134.361 63.5608L133.867 63.6757ZM5.8502 59.6641L5.36261 59.5185C5.60671 58.359 5.87707 57.1898 6.16621 56.0433L6.64753 56.2155C6.36073 57.3532 6.09246 58.5135 5.8502 59.6641ZM132.447 56.7265C132.166 55.5866 131.86 54.4399 131.536 53.318L132.011 53.1233C132.338 54.2538 132.647 55.4096 132.929 56.5581L132.447 56.7265ZM7.58062 52.8051L7.10641 52.6066C7.44047 51.4748 7.80116 50.3377 8.17841 49.2267L8.64452 49.4512C8.27009 50.5536 7.9121 51.6821 7.58062 52.8051ZM130.494 49.9629C130.128 48.8611 129.735 47.7554 129.327 46.6763L129.786 46.4304C130.197 47.5179 130.592 48.6321 130.962 49.7422L130.494 49.9629ZM9.83679 46.1605L9.38001 45.9105C9.79985 44.8216 10.2467 43.7296 10.7081 42.665L11.1549 42.9395C10.6968 43.9961 10.2534 45.0797 9.83679 46.1605ZM128.034 43.4557C127.584 42.3988 127.108 41.3397 126.618 40.3082L127.055 40.0133C127.549 41.0528 128.029 42.1199 128.483 43.185L128.034 43.4557ZM12.5958 39.7949L12.1601 39.4962C12.6615 38.4591 13.1904 37.4211 13.732 36.4111L14.1556 36.7332C13.6182 37.7356 13.0933 38.7658 12.5958 39.7949ZM125.081 37.24C124.55 36.2329 123.994 35.2296 123.428 34.2579L123.841 33.9168C124.411 34.8959 124.972 35.9068 125.507 36.9216L125.081 37.24ZM15.8313 33.7605L15.4204 33.4156C15.9999 32.4368 16.6058 31.4611 17.2216 30.5157L17.6188 30.8826C17.0077 31.821 16.4063 32.7892 15.8313 33.7605ZM121.662 31.3681C121.056 30.4232 120.425 29.4838 119.786 28.5761L120.172 28.1916C120.815 29.1063 121.451 30.0527 122.061 31.0048L121.662 31.3681ZM19.5143 28.1056L19.1316 27.7174C19.7819 26.8077 20.4597 25.9022 21.1461 25.0261L21.5136 25.4345C20.8324 26.304 20.1598 27.2028 19.5143 28.1056ZM117.806 25.888C117.131 25.0127 116.43 24.145 115.724 23.3096L116.079 22.8848C116.79 23.7269 117.496 24.6009 118.176 25.4829L117.806 25.888ZM23.6123 22.8755L23.2608 22.4475C23.9796 21.61 24.7234 20.7819 25.4714 19.9865L25.8062 20.4332C25.0639 21.2225 24.3257 22.0442 23.6123 22.8755ZM113.546 20.846C112.806 20.0466 112.042 19.2582 111.276 18.5027L111.596 18.0414C112.368 18.8026 113.138 19.597 113.884 20.4025L113.546 20.846ZM28.0908 18.1124L27.7734 17.6482C28.5509 16.8942 29.3543 16.1505 30.1616 15.4378L30.4611 15.9187C29.6598 16.6261 28.8623 17.3641 28.0908 18.1124ZM32.912 13.8566L32.6315 13.3599C33.4635 12.6931 34.3202 12.0402 35.1776 11.4189L35.4388 11.9304C34.5879 12.547 33.7378 13.195 32.912 13.8566ZM38.0363 10.1443L37.795 9.61901C38.6753 9.04532 39.5779 8.48872 40.4777 7.96444L40.6986 8.50232C39.8057 9.02252 38.9099 9.57486 38.0363 10.1443ZM98.7023 8.75723C97.8079 8.22649 96.8917 7.71377 95.9791 7.23333L96.1823 6.6858C97.102 7.16989 98.0254 7.68658 98.9267 8.22139L98.7023 8.75723ZM43.4204 7.0078L43.2206 6.4585C44.1406 5.98361 45.0817 5.52817 46.0176 5.10473L46.196 5.66454C45.2672 6.08462 44.3334 6.53656 43.4204 7.0078ZM93.1989 5.85997C92.2681 5.43011 91.3155 5.01996 90.3674 4.64111L90.5274 4.07341C91.4827 4.45533 92.4426 4.86853 93.3805 5.30191L93.1989 5.85997ZM49.0275 4.472L48.8709 3.90314C49.8262 3.53012 50.8009 3.17889 51.7677 2.85953L51.9021 3.43629C50.9426 3.75332 49.9754 4.10177 49.0275 4.472ZM87.4986 3.58187C86.5398 3.25636 85.562 2.95322 84.5922 2.68092L84.7075 2.09831C85.6849 2.37266 86.6702 2.67813 87.6365 3.00598L87.4986 3.58187ZM54.8139 2.55945L54.7019 1.97582C55.6813 1.70937 56.6789 1.46659 57.667 1.25436L57.7563 1.8434C56.7756 2.05417 55.7857 2.29504 54.8139 2.55945ZM81.6539 1.94074C80.675 1.72194 79.678 1.52724 78.6903 1.36208L78.7601 0.769243C79.7554 0.935722 80.7602 1.13187 81.7467 1.35229L81.6539 1.94074ZM60.7234 1.2893L60.6569 0.695874C61.652 0.537725 62.6639 0.404715 63.6646 0.300942L63.7083 0.897287C62.7152 1.00047 61.7111 1.13231 60.7234 1.2893ZM75.7074 0.945813C74.7172 0.83473 73.7094 0.749079 72.7117 0.691635L72.7362 0.0935475C73.7413 0.151575 74.7568 0.237813 75.7545 0.349785L75.7074 0.945813ZM66.7058 0.667664L66.6847 0.0695761C67.6085 0.0236809 68.5501 0.000293356 69.4835 0L69.711 0.000440204L69.7096 0.599126L69.4835 0.598686C68.5572 0.598961 67.6225 0.622202 66.7058 0.667657V0.667664Z" fill="#3F3D56"/>
<path d="M150.359 28.2V222.234C150.357 224.545 149.585 226.761 148.213 228.395C146.84 230.029 144.979 230.947 143.038 230.948H76.8976C75.9361 230.95 74.9837 230.726 74.0949 230.289C73.2062 229.852 72.3987 229.21 71.7185 228.401C71.0384 227.591 70.499 226.63 70.1314 225.572C69.7637 224.513 69.575 223.379 69.5761 222.234V28.2C69.576 27.0548 69.7653 25.9209 70.1332 24.8629C70.5011 23.8049 71.0404 22.8436 71.7203 22.0339C72.4002 21.2241 73.2073 20.5818 74.0957 20.1437C74.984 19.7055 75.9361 19.48 76.8976 19.4801H86.7954V20.9918C86.7952 22.8959 87.43 24.7222 88.5603 26.0689C89.6906 27.4156 91.2237 28.1725 92.8225 28.173H126.462C127.749 28.1763 129.002 27.685 130.036 26.7721C130.245 26.5911 130.443 26.393 130.629 26.1794C131.218 25.5098 131.686 24.7047 132.006 23.8129C132.326 22.9212 132.49 21.9614 132.489 20.9918V19.4801H143.038C143.999 19.4798 144.952 19.7051 145.84 20.1431C146.728 20.5812 147.536 21.2235 148.216 22.0333C148.896 22.8431 149.435 23.8045 149.803 24.8626C150.171 25.9207 150.36 27.0548 150.359 28.2Z" fill="#3F3D56"/>
<path d="M140.69 89.4276H79.2458V145.105H140.69V89.4276Z" fill="#7EB685"/>
<path d="M46.8901 80.0463C52.3607 80.186 56.7126 84.9076 56.7126 84.9076C56.7126 84.9076 52.1947 89.4026 46.7241 89.2629C41.2535 89.1231 36.9017 84.4015 36.9017 84.4015C36.9017 84.4015 41.4195 79.9065 46.8901 80.0463Z" fill="#7EB685"/>
<path d="M19.3866 57.8058C24.3291 60.6023 29.9966 58.7059 29.9966 58.7059C29.9966 58.7059 27.6507 52.2755 22.7082 49.479C17.7657 46.6825 12.0983 48.5788 12.0983 48.5788C12.0983 48.5788 14.4442 55.0093 19.3866 57.8058Z" fill="#7EB685"/>
<path d="M19.8891 55.0268C25.3383 54.4337 30.1079 58.5431 30.1079 58.5431C30.1079 58.5431 26.0427 63.6142 20.5935 64.2073C15.1444 64.8004 10.3747 60.6909 10.3747 60.6909C10.3747 60.6909 14.4399 55.6199 19.8891 55.0268Z" fill="#3F3D56"/>
<path d="M39.864 56.1504C39.3417 62.6375 42.7708 68.3364 42.7708 68.3364C42.7708 68.3364 47.0468 63.5175 47.5691 57.0303C48.0914 50.5431 44.6622 44.8442 44.6622 44.8442C44.6622 44.8442 40.3863 49.6632 39.864 56.1504Z" fill="#3F3D56"/>
<path d="M65.5269 95.936C62.6688 101.493 63.6522 108.406 63.6522 108.406C63.6522 108.406 69.2694 106.308 72.1275 100.751C74.9857 95.1939 74.0023 88.2812 74.0023 88.2812C74.0023 88.2812 68.3851 90.3787 65.5269 95.936Z" fill="#3F3D56"/>
<path d="M57.2352 156.358L57.6517 156.023C56.1835 153.485 55.3819 150.485 55.3486 147.404C55.3603 142.896 57.2192 138.727 59.017 134.696C59.3507 133.947 59.6833 133.201 60.0032 132.456C61.3462 129.416 62.4165 126.216 63.1963 122.909C65.9848 110.567 63.2393 96.006 55.8523 83.9579C49.9922 74.4003 41.2565 66.0426 29.1464 58.4073L28.9113 58.9365C40.9524 66.5282 49.6321 74.8284 55.4463 84.311C62.7445 96.214 65.4602 110.585 62.7108 122.754C61.9401 126.02 60.8826 129.181 59.5558 132.183C59.2368 132.926 58.9055 133.669 58.573 134.415C56.7466 138.511 54.858 142.746 54.846 147.402C54.8792 150.603 55.7108 153.721 57.2352 156.358Z" fill="#3F3D56"/>
<path d="M5.27547 59.194C7.91289 59.194 10.0509 56.6476 10.0509 53.5065C10.0509 50.3654 7.91289 47.819 5.27547 47.819C2.63805 47.819 0.5 50.3654 0.5 53.5065C0.5 56.6476 2.63805 59.194 5.27547 59.194Z" fill="#3F3D56"/>
<path d="M72.4994 145.828L42.5222 142.853V90.4896L72.4994 88.7046V145.828Z" fill="#7EB685"/>
<path d="M147.436 145.828L177.413 142.853V90.4896L147.436 88.7046V145.828Z" fill="#7EB685"/>
<path d="M120.388 110.326C119.496 109.408 118.397 108.824 117.228 108.647C116.058 108.47 114.871 108.708 113.815 109.331C112.898 109.859 111.911 110.195 110.898 110.325C110.873 107.711 111.275 105.117 112.084 102.687L112.216 102.279H110.455L110.404 102.499C110.208 103.359 110.053 104.231 109.941 105.111C109.845 104.729 109.722 104.359 109.572 104.003C108.336 101.085 105.481 99.8911 105.36 99.8418L105.116 99.7424L105.039 100.035C105 100.18 104.109 103.624 105.344 106.542C106.229 108.632 107.944 109.837 108.891 110.371C107.692 110.279 106.52 109.906 105.443 109.272C104.771 108.86 104.016 108.682 103.263 108.757C102.51 108.833 101.79 109.16 101.186 109.7C97.8962 112.677 96.0095 117.042 96.0095 121.674C96.0095 127.759 99.3182 133.332 104.439 135.871C104.901 136.099 105.396 136.216 105.896 136.215C106.591 136.216 107.273 135.993 107.87 135.571C108.663 135.021 109.565 134.73 110.483 134.728C111.402 134.726 112.304 135.012 113.1 135.558C113.614 135.92 114.192 136.134 114.788 136.184C115.384 136.234 115.981 136.118 116.533 135.846C121.624 133.297 124.914 127.734 124.914 121.674C124.914 117.336 123.306 113.306 120.388 110.326ZM110.839 102.878H111.486C110.758 105.199 110.388 107.657 110.391 110.134H110.276C110.12 107.695 110.31 105.242 110.839 102.878ZM105.793 106.273C104.855 104.057 105.266 101.417 105.448 100.526C106.158 100.88 108.183 102.053 109.123 104.272C110.061 106.487 109.65 109.128 109.468 110.019C108.758 109.663 106.731 108.488 105.793 106.273ZM116.338 135.294C115.859 135.531 115.339 135.631 114.821 135.587C114.304 135.543 113.802 135.357 113.355 135.042C112.481 134.442 111.49 134.127 110.482 134.129C109.474 134.132 108.484 134.452 107.613 135.056C107.167 135.372 106.666 135.56 106.149 135.606C105.631 135.651 105.112 135.553 104.632 135.318C99.6994 132.872 96.5121 127.517 96.5121 121.674C96.5121 117.23 98.3265 113.04 101.49 110.177C102.097 109.631 102.837 109.337 103.598 109.339C104.159 109.338 104.713 109.498 105.213 109.804C106.589 110.587 108.094 110.998 109.62 111.009C111.145 111.02 112.654 110.63 114.039 109.867C115.007 109.296 116.094 109.079 117.165 109.241C118.236 109.404 119.243 109.939 120.06 110.78C122.866 113.645 124.411 117.514 124.411 121.674C124.411 127.493 121.242 132.839 116.338 135.294Z" fill="white"/>
<path d="M57.4287 104.668V103.966H57.6633V101.776C57.6642 101.614 57.6276 101.454 57.5575 101.315C57.4875 101.176 57.3866 101.062 57.266 100.987C56.2286 100.342 55.1138 100.343 53.9524 100.99C53.8242 101.062 53.716 101.177 53.6402 101.32C53.5645 101.463 53.5244 101.628 53.5246 101.797V103.965H53.7591V104.602C52.8959 104.89 52.1359 105.507 51.5956 106.359C51.0553 107.211 50.7647 108.251 50.7682 109.319V114.056L51.2149 114.234L50.7682 114.588V116.012L51.2149 116.189L50.7682 116.544V117.968L51.2149 118.145L50.7682 118.5V129.343C50.769 130.188 51.0515 130.999 51.5536 131.597C52.0557 132.195 52.7365 132.532 53.4467 132.533H57.3954C58.1039 132.532 58.7832 132.196 59.2842 131.6C59.7852 131.003 60.067 130.194 60.0678 129.35V118.5L59.6211 118.145L60.0678 117.968V116.544L59.6211 116.189L60.0678 116.012V114.588L59.6211 114.234L60.0678 114.056V109.074C60.0648 108.105 59.8094 107.16 59.3367 106.371C58.864 105.582 58.1974 104.987 57.4287 104.668ZM54.1652 101.532C55.1918 100.961 56.1302 100.956 57.0333 101.518C57.0722 101.543 57.1045 101.58 57.1269 101.626C57.1493 101.671 57.161 101.723 57.1606 101.776V102.948H54.0273V101.797C54.0269 101.742 54.0396 101.688 54.064 101.641C54.0885 101.594 54.1235 101.556 54.1652 101.532ZM59.5651 113.625L58.4871 114.053L59.5651 114.909V115.58L58.4871 116.008L59.5651 116.864V117.536L58.4871 117.964L59.5651 118.82V129.35C59.5645 130.035 59.3357 130.692 58.9289 131.176C58.5221 131.661 57.9706 131.933 57.3954 131.934H53.4467C52.8698 131.933 52.3168 131.66 51.9089 131.174C51.501 130.688 51.2715 130.03 51.2709 129.343V118.82L52.3489 117.964L51.2709 117.536V116.864L52.3489 116.008L51.2709 115.58V114.909L52.3489 114.053L51.2709 113.625V109.319C51.2677 108.345 51.5429 107.4 52.0512 106.638C52.5594 105.875 53.2705 105.342 54.0672 105.125L54.2618 105.072V103.966H56.9261V105.112L57.1073 105.175C57.8149 105.423 58.4363 105.936 58.8791 106.639C59.3219 107.342 59.5625 108.196 59.5651 109.074V113.625Z" fill="white"/>
<path d="M175.575 112.867L174.309 112.565L174.607 111.856L174.027 111.717L174.127 110.998L173.493 110.872V110.191L172.979 110.016L173.467 109.289H172.62L172.797 108.763L172.171 108.639L172.383 107.751H171.706V106.923H171.454C170.662 106.923 170.221 108.044 170.076 108.492C165.704 109.4 153.012 119.871 151.563 121.075C150.961 120.842 150.069 121.387 149.882 121.508L149.587 121.7L150.013 122.207L149.886 122.66L150.667 123.009L150.496 123.518L150.988 124.006L150.546 124.401L151.211 124.877L151.094 125.571L151.837 125.698V126.393L152.268 126.496L152.053 127.393H152.532V128.103H152.999L153.211 128.859L153.429 128.807C153.934 128.686 154.367 127.853 154.537 127.484C158.747 126.589 171.744 115.698 173.01 114.631C174.487 114.842 175.029 114.372 175.087 114.317L175.328 114.088L174.754 113.518L175.575 112.867ZM172.977 114.023L172.879 114.007L172.799 114.076C172.655 114.197 158.401 126.224 154.337 126.916L154.207 126.938L154.148 127.078C153.992 127.457 153.781 127.799 153.526 128.091L153.362 127.504H153.035V126.795H152.719L152.902 126.036L152.34 125.902V125.179L151.692 125.068L151.774 124.58L151.446 124.346L151.798 124.031L151.098 123.337L151.325 122.663L150.516 122.302L150.588 122.045L150.432 121.859C150.81 121.672 151.266 121.533 151.462 121.673L151.603 121.773L151.736 121.662C151.879 121.542 166.037 109.749 170.297 109.057L170.456 109.031L170.503 108.848C170.576 108.565 170.836 107.851 171.203 107.606V108.35H171.717L171.533 109.119L172.098 109.231L171.877 109.888H172.421L172.115 110.344L172.991 110.642V111.38L173.549 111.49L173.451 112.191L173.863 112.289L173.565 112.999L174.286 113.17L173.915 113.465L174.449 113.995C173.964 114.112 173.465 114.121 172.977 114.023Z" fill="white"/>
<path d="M109.968 170.55C113.993 170.55 117.257 166.663 117.257 161.869C117.257 157.074 113.993 153.188 109.968 153.188C105.942 153.188 102.679 157.074 102.679 161.869C102.679 166.663 105.942 170.55 109.968 170.55Z" fill="#7EB685"/>
<path d="M114.557 161.011H110.688V156.403H109.248V161.011H105.379V162.726H109.248V167.334H110.688V162.726H114.557V161.011Z" fill="white"/>
<path d="M132.957 162.168L129.186 160.073V161.27H120.39V163.066H129.186V164.263L132.957 162.168Z" fill="white"/>
<path d="M86.9791 162.168L90.7492 160.073V161.27H99.5462V163.066H90.7492V164.263L86.9791 162.168Z" fill="white"/>
<path d="M202.084 231.017H17.8516V231.616H202.084V231.017Z" fill="#3F3D56"/>
<path d="M134.096 47.8188H85.8391V48.4175H134.096V47.8188Z" fill="white"/>
<path d="M134.213 211.26H85.9559V211.859H134.213V211.26Z" fill="white"/>
<path d="M211.752 152.14L210.495 157.827C210.495 157.827 205.971 169.801 210.495 170.4C215.019 170.998 215.271 154.834 215.271 154.834L211.752 152.14Z" fill="#A0616A"/>
<path d="M219.543 111.13L210.495 153.637C210.495 153.637 214.014 154.834 215.773 156.331L219.543 111.13Z" fill="#D0CDE1"/>
<path d="M247.945 143.459L250.458 189.857C250.458 189.857 256.49 208.117 256.239 225.479C256.239 225.479 253.977 232.364 255.736 233.561C257.496 234.759 258.501 235.657 257.496 236.555C256.49 237.453 255.736 239.548 256.49 240.147C257.244 240.745 257.496 241.643 257.244 241.643H249.704C249.704 241.643 251.212 237.153 248.95 235.956C246.688 234.759 247.945 231.765 247.945 231.765L231.105 173.094L217.784 226.976C217.784 226.976 220.046 228.772 218.287 229.67C216.527 230.568 215.773 228.772 216.527 230.568C217.281 232.364 216.276 233.262 216.276 233.561C216.276 233.861 208.736 232.663 208.736 232.663C208.736 232.663 212.506 228.772 210.746 227.874C208.987 226.976 208.233 226.078 208.736 225.479C209.238 224.88 211.249 219.193 211.249 219.193C211.249 219.193 212.254 197.64 212.506 196.742C212.757 195.844 212.506 191.653 212.506 189.558C212.506 187.462 212.254 179.081 213.008 176.985C213.763 174.89 214.517 149.147 218.538 146.153C222.559 143.16 247.945 143.459 247.945 143.459Z" fill="#2F2E41"/>
<path d="M216.025 232.064C216.025 232.064 221.051 244.338 217.533 245.834C214.014 247.331 209.49 246.134 208.484 247.93C207.479 249.726 196.42 251.821 196.169 247.331C195.917 242.841 208.233 234.459 208.233 234.459L209.837 231.383L216.025 232.064Z" fill="#2F2E41"/>
<path d="M256.742 241.045C256.742 241.045 261.768 253.318 258.25 254.815C254.731 256.311 250.207 255.114 249.201 256.91C248.196 258.706 237.137 260.801 236.886 256.311C236.634 251.821 248.95 243.44 248.95 243.44L250.554 240.363L256.742 241.045Z" fill="#2F2E41"/>
<path d="M233.493 87.0329C238.074 87.0329 241.787 82.6102 241.787 77.1546C241.787 71.6989 238.074 67.2762 233.493 67.2762C228.912 67.2762 225.198 71.6989 225.198 77.1546C225.198 82.6102 228.912 87.0329 233.493 87.0329Z" fill="#A0616A"/>
<path d="M239.148 82.3929L238.143 91.0739L230.602 97.9588L228.592 94.666V83.291L239.148 82.3929Z" fill="#A0616A"/>
<path d="M227.335 93.4687C227.335 93.4687 235.126 94.3667 239.148 91.074L247.191 147.65C247.191 147.65 218.789 150.344 217.533 148.548V130.887L222.559 102.15L227.335 93.4687Z" fill="#3F3D56"/>
<path d="M238.456 88.369L241.159 91.0739C241.159 91.0739 252.218 93.1693 251.464 96.7615L248.447 139.268L249.453 153.637C249.453 153.637 240.907 150.943 234.372 153.637C227.838 156.331 233.029 95.7427 233.029 95.7427C233.029 95.7427 239.02 89.2562 238.456 88.369Z" fill="#D0CDE1"/>
<path d="M228.592 91.6455C228.592 91.6455 220.549 98.5575 219.543 103.048C218.538 107.538 215.271 154.834 215.271 154.834C215.271 154.834 216.779 153.936 217.533 155.433C218.287 156.929 229.848 94.0131 228.592 91.6455Z" fill="#D0CDE1"/>
<path d="M250.71 154.235L248.908 161.237C248.908 161.237 248.448 174.291 242.415 172.495C236.383 170.699 244.175 155.433 244.175 155.433L245.934 152.14L250.71 154.235Z" fill="#A0616A"/>
<path d="M225.202 76.7241C225.202 76.7241 224.305 75.12 224.65 73.3926C224.856 72.4118 224.938 71.3997 224.892 70.3901C224.892 70.3901 225.617 67.5932 226.342 66.0302C227.067 64.4673 226.722 63.8092 229.001 63.3156C231.281 62.8221 230.348 59.2849 236.357 63.11C236.56 63.4471 236.842 63.7052 237.168 63.8516C237.493 63.998 237.848 64.0262 238.188 63.9326C239.431 63.6447 239.88 65.7012 239.88 65.7012C239.88 65.7012 240.709 65.1254 241.019 65.948C241.33 66.7706 243.546 65.4543 243.546 71.0069C243.546 76.5595 241.024 81.5194 241.024 81.5194C241.024 81.5194 241.209 72.1792 237.1 71.2332C232.99 70.2872 228.57 67.5315 227.499 71.0687C226.921 73.054 226.15 74.952 225.202 76.7241Z" fill="#2F2E41"/>
<path d="M241.115 78.9448C241.562 78.9448 241.925 78.3685 241.925 77.6576C241.925 76.9467 241.562 76.3704 241.115 76.3704C240.667 76.3704 240.304 76.9467 240.304 77.6576C240.304 78.3685 240.667 78.9448 241.115 78.9448Z" fill="#A0616A"/>
<path d="M249.453 94.6661C249.453 94.6661 253.474 93.4687 254.731 101.551C255.988 109.633 257.496 132.683 257.496 132.683L251.464 156.929C251.464 156.929 245.431 153.038 244.175 153.637L248.922 132.587L244.929 111.13C244.929 111.13 248.447 94.6661 249.453 94.6661Z" fill="#D0CDE1"/>
<path opacity="0.15" d="M243.606 111.539L248.884 132.493L243.606 153.747L246.622 132.493L243.606 111.539Z" fill="black"/>
</g>
<defs>
<clipPath id="clip0_1_101">
<rect width="259" height="259" fill="white" transform="translate(0.5)"/>
</clipPath>
</defs>
</svg>
