<?xml version="1.0" encoding="utf-8"?>
<!-- Generator: Adobe Illustrator 16.0.3, SVG Export Plug-In . SVG Version: 6.00 Build 0)  -->
<!DOCTYPE svg PUBLIC "-//W3C//DTD SVG 1.1//EN" "http://www.w3.org/Graphics/SVG/1.1/DTD/svg11.dtd">
<svg version="1.1" id="Capa_1" xmlns="http://www.w3.org/2000/svg" xmlns:xlink="http://www.w3.org/1999/xlink" x="0px" y="0px"
	 width="2722.309px" height="2178.975px" viewBox="0 0 2722.309 2178.975" enable-background="new 0 0 2722.309 2178.975"
	 xml:space="preserve">
<g>
	<path fill="#6EC2AA" d="M485.407,515.581c-1.625-1.06-3.123-4.556-10.772-5.413l27.379-0.021
		c7.284-0.467,13.313-1.826,14.375-2.041c7.684-1.555,14.723-7.26,19.345-14.353c7.137-10.955,6.286-24.807-1.108-34.688
		c-0.005-0.006-0.01-0.014-0.014-0.019l-19.407-26.56l-59.684-81.683l-1.053-1.438c-1.313-2.333-1.329-5.277,0.219-7.65
		c2.227-3.419,6.841-4.357,10.307-2.101c0.757,0.494,1.396,1.098,1.911,1.778l0.002,0.004l0.186,0.258l0.027,0.038l78.46,107.521
		l2.397,3.284c9.693,14.626,10.389,34.208,0.202,49.842c-7.97,12.235-20.153,18.896-33.665,19.994l-1.313,0.125
		C503.546,523.24,494.153,521.278,485.407,515.581z"/>
	<path fill="#6EC2AA" d="M359.831,474.702"/>
	<path fill="#6EC2AA" d="M496.188,510.906"/>
	<path fill="#6EC2AA" d="M415.751,507.252c1.736,1.321,3.812,1.831,5.707,1.579h0.005l59.459,1.495
		c1.352,1.292-0.459-0.555,1.071,0.607c8.228,6.255,19.939,11.313,29.215,11.646l-87.705,0.029h-0.013
		c-0.618-0.066-1.232-0.052-1.828,0.037c-1.534,0.232-2.939,0.97-3.945,2.182"/>
	<path fill="#6EC2AA" d="M489.569,514.738"/>
	<path fill="#6EC2AA" d="M381.933,471.568"/>
	<g>
		<g>
			<path fill="#6EC2AA" d="M357.221,505.934c-0.655-0.044-1.313-0.001-1.958,0.127C355.916,506.015,356.568,505.971,357.221,505.934
				z"/>
			<path fill="#6EC2AA" d="M402.021,553.201c0.508,0,1.014-0.029,1.52-0.08C403.038,553.2,402.527,553.229,402.021,553.201z"/>
			<path fill="#6EC2AA" d="M354.068,530.316c-2.912-2.938-2.904-7.668,0.016-10.563c1.684-1.669,3.969-2.365,6.159-2.09
				c1.609,0.198,3.171,0.923,4.405,2.168c2.912,2.938,2.903,7.667-0.018,10.563c-1.173,1.161-2.636,1.853-4.16,2.07
				c-0.091,0.013-0.182,0.025-0.274,0.034C358.012,532.734,355.74,532.003,354.068,530.316z"/>
			<path fill="#6EC2AA" d="M393.29,532.499c1.332-0.96,3.129-0.961,4.432,0H393.29z"/>
			<path fill="#6EC2AA" d="M401.565,517.569c0.222-0.013,0.444-0.015,0.665-0.001L401.565,517.569z"/>
			<path fill="#6EC2AA" d="M417.236,533.938c-2.763-2.948-2.725-7.546,0.123-10.365c0.069-0.067,0.138-0.136,0.208-0.197
				L417.236,533.938z"/>
			<line fill="none" x1="388.195" y1="532.483" x2="391.824" y2="532.485"/>
			<path fill="#6EC2AA" d="M406.655,511.766c-3.046,0.043-6.097,0.044-9.145,0.097c1.302,1.478,1.228,3.749-0.214,5.177
				c-0.212,0.211-0.443,0.393-0.688,0.544l-3.98,0.009l-32.387,0.073c1.609,0.198,3.171,0.923,4.405,2.168
				c2.912,2.938,2.903,7.667-0.018,10.563c-1.173,1.16-2.636,1.852-4.16,2.069l27.725,0.019c-0.001,0.004-0.005,0.011-0.006,0.015
				l5.101,0.001c1.332-0.96,3.129-0.961,4.432,0c0.152,0.111,0.299,0.238,0.437,0.376c1.458,1.471,1.426,3.859-0.066,5.34
				c-0.046,0.043-0.092,0.087-0.136,0.128c-1.434,1.29-3.583,1.316-5.004,0.075l-0.001-0.002l-5.903,0.09l-27.909,0.42l-0.199,0.002
				c-1.844,0.035-3.674,0.75-5.083,2.146c-2.922,2.896-2.932,7.624-0.02,10.563c1.592,1.606,3.728,2.344,5.815,2.211l0.001-0.001
				l41.495-0.668c0.003-0.001,0.007,0.001,0.01,0l0.45-0.007c0.122,0.013,0.247,0.021,0.37,0.027
				c0.014,0.002,0.031,0.003,0.047,0.002c0.508,0,1.014-0.029,1.52-0.08c0.009-0.002,0.014-0.002,0.023-0.002
				c0.007-0.001,0.013-0.001,0.019-0.004c3.292-0.352,6.498-1.786,9.038-4.304c2.962-2.936,4.458-6.786,4.485-10.635l0.002-0.035
				l0.13-4.205c-2.762-2.948-2.725-7.546,0.123-10.365c0.069-0.067,0.138-0.136,0.208-0.197l0.255-8.227
				c-0.011-1.313-0.029-2.62-0.047-3.934C414.081,511.556,410.37,511.712,406.655,511.766z M402.23,517.568l-0.665,0.001
				C401.787,517.558,402.01,517.556,402.23,517.568z"/>
			<path fill="#6EC2AA" d="M401.154,553.179l0.449-0.007c0.122,0.013,0.247,0.021,0.371,0.027
				C401.699,553.2,401.427,553.192,401.154,553.179z"/>
			<line fill="none" x1="499.569" y1="505.936" x2="502.82" y2="506.017"/>
			<path fill="#6EC2AA" d="M392.95,538.418l5.004-0.075C396.521,539.633,394.371,539.659,392.95,538.418z"/>
			<path fill="#6EC2AA" d="M402.371,475.74c0.509,0.006,1.014,0.04,1.52,0.096C403.389,475.749,402.878,475.718,402.371,475.74z"/>
			<path fill="#6EC2AA" d="M354.213,498.189c-2.939,2.912-2.975,7.642-0.079,10.562c1.667,1.685,3.945,2.4,6.139,2.146
				c1.612-0.185,3.178-0.894,4.424-2.129c2.938-2.911,2.973-7.641,0.078-10.563c-1.162-1.173-2.619-1.876-4.14-2.107
				c-0.09-0.016-0.183-0.027-0.274-0.039C358.179,495.809,355.9,496.518,354.213,498.189z"/>
			<path fill="#6EC2AA" d="M393.454,496.363c1.323,0.971,3.119,0.987,4.431,0.039L393.454,496.363z"/>
			<path fill="#6EC2AA" d="M401.592,511.366c0.224,0.014,0.445,0.016,0.667,0.009L401.592,511.366z"/>
			<path fill="#6EC2AA" d="M417.412,495.143c-2.788,2.924-2.792,7.521,0.029,10.366c0.067,0.068,0.136,0.135,0.205,0.198
				L417.412,495.143z"/>
			<line fill="none" x1="391.988" y1="496.362" x2="388.358" y2="496.332"/>
			<path fill="#6EC2AA" d="M417.744,517.868c0.031-1.313,0.061-2.622,0.084-3.935l-0.182-8.228c-0.07-0.063-0.139-0.13-0.206-0.198
				c-2.821-2.846-2.817-7.442-0.029-10.366l-0.092-4.208l-0.002-0.033c0.009-3.85-1.453-7.714-4.39-10.676
				c-2.517-2.541-5.709-4.004-8.998-4.385c-0.005-0.004-0.011-0.003-0.02-0.005c-0.007-0.001-0.014-0.001-0.021,0
				c-0.506-0.056-1.011-0.09-1.52-0.096c-0.016-0.001-0.032-0.001-0.045,0.001c-0.125,0.005-0.248,0.012-0.371,0.025l-0.45-0.015
				c-0.003,0-0.008,0.003-0.011,0.003l-41.485-1.045h-0.001c-2.085-0.151-4.228,0.566-5.833,2.158
				c-2.939,2.911-2.973,7.639-0.077,10.561c1.397,1.41,3.22,2.142,5.064,2.194l0.199,0.002l27.904,0.673l5.901,0.145l0.001-0.002
				c1.433-1.229,3.583-1.184,5.004,0.12c0.043,0.043,0.09,0.086,0.134,0.129c1.48,1.495,1.488,3.885,0.019,5.341
				c-0.139,0.137-0.285,0.262-0.438,0.372c-1.312,0.948-3.108,0.932-4.431-0.039l-5.101-0.046c0.001,0.005,0.004,0.011,0.006,0.015
				l-27.724-0.232c1.521,0.231,2.979,0.936,4.14,2.107c2.896,2.922,2.86,7.649-0.078,10.563c-1.246,1.235-2.812,1.944-4.424,2.128
				l32.384,0.368l3.979,0.043c0.243,0.154,0.473,0.337,0.685,0.553c1.426,1.438,1.479,3.713,0.166,5.177
				c3.048,0.08,6.098,0.105,9.144,0.179C410.345,517.304,414.054,517.493,417.744,517.868z M401.592,511.366l0.667,0.009
				C402.038,511.382,401.815,511.38,401.592,511.366z"/>
			<path fill="#6EC2AA" d="M401.504,475.753l0.45,0.015c0.123-0.015,0.246-0.021,0.371-0.025
				C402.051,475.739,401.777,475.742,401.504,475.753z"/>
			<path fill="#6EC2AA" d="M393.166,490.441l5.004,0.119C396.75,489.258,394.599,489.213,393.166,490.441z"/>
		</g>
	</g>
</g>
<g>
	<path fill="#ECB135" d="M125.014,442.753c1.817-0.682,5.52,0.185,10.744-5.47L119.55,459.35
		c-3.941,6.145-6.417,11.807-6.874,12.789c-3.301,7.109-2.876,16.16,0.098,24.086c4.596,12.24,16.258,19.764,28.6,19.663
		c0.007-0.001,0.016,0,0.022-0.001l32.895,0.105l101.163,0.325l1.783,0.006c2.658,0.323,5.038,2.057,6.034,4.708
		c1.434,3.819-0.543,8.094-4.416,9.548c-0.847,0.315-1.711,0.474-2.565,0.483h-0.004l-0.318-0.003h-0.047l-133.103-0.512
		l-4.066-0.016c-17.526-0.857-33.711-11.901-40.269-29.37c-5.133-13.671-3.279-27.434,3.843-38.966l0.677-1.132
		C108.096,452.825,115.242,446.422,125.014,442.753z"/>
	<path fill="#ECB135" d="M232.355,365.821"/>
	<path fill="#ECB135" d="M122.393,454.206"/>
	<path fill="#ECB135" d="M172.999,391.579c-2.093,0.615-3.733,1.985-4.654,3.661l-0.003,0.004l-36.438,47.01
		c-1.841,0.323,0.719-0.041-1.125,0.503c-9.913,2.921-20.928,9.358-26.693,16.632l51.947-70.666l0.007-0.01
		c0.42-0.459,0.771-0.963,1.054-1.495c0.721-1.373,0.96-2.941,0.58-4.47"/>
	<path fill="#ECB135" d="M123.227,446.604"/>
	<path fill="#ECB135" d="M221.783,385.482"/>
	<g>
		<g>
			<path fill="#ECB135" d="M208.744,345.213c0.423-0.502,0.778-1.057,1.058-1.652C209.452,344.113,209.101,344.665,208.744,345.213z
				"/>
			<path fill="#ECB135" d="M144.122,353.291c-0.301,0.409-0.577,0.834-0.836,1.271C143.52,354.111,143.799,353.682,144.122,353.291z
				"/>
			<path fill="#ECB135" d="M190.972,328.225c4.093-0.604,7.897,2.204,8.499,6.271c0.346,2.346-0.446,4.599-1.966,6.199
				c-1.113,1.18-2.623,2.008-4.357,2.265c-4.092,0.604-7.896-2.205-8.498-6.274c-0.241-1.633,0.07-3.221,0.797-4.577
				c0.043-0.08,0.087-0.162,0.135-0.241C186.687,329.969,188.623,328.571,190.972,328.225z"/>
			<path fill="#ECB135" d="M165.972,358.525c-0.016,1.641-1.08,3.09-2.626,3.568L165.972,358.525z"/>
			<path fill="#ECB135" d="M173.094,374.038c-0.122,0.186-0.252,0.366-0.394,0.537L173.094,374.038z"/>
			<path fill="#ECB135" d="M150.623,376.962c4.013-0.478,7.692,2.278,8.278,6.241c0.013,0.097,0.027,0.19,0.036,0.285
				L150.623,376.962z"/>
			<line fill="none" x1="169.003" y1="354.431" x2="166.852" y2="357.353"/>
			<path fill="#ECB135" d="M174.753,381.577c1.77-2.479,3.577-4.938,5.341-7.423c-1.961,0.173-3.747-1.232-4.043-3.24
				c-0.044-0.296-0.054-0.589-0.031-0.876l2.351-3.211l19.132-26.132c-1.113,1.18-2.623,2.008-4.357,2.265
				c-4.092,0.604-7.896-2.205-8.498-6.274c-0.241-1.633,0.07-3.221,0.797-4.577l-16.443,22.322
				c-0.002-0.004-0.005-0.011-0.008-0.014l-3.023,4.108c-0.016,1.641-1.08,3.09-2.626,3.568c-0.18,0.058-0.369,0.101-0.561,0.128
				c-2.048,0.304-3.954-1.138-4.262-3.218c-0.007-0.063-0.016-0.125-0.022-0.186c-0.19-1.918,1.063-3.666,2.905-4.075h0.002
				l3.425-4.81l16.2-22.729l0.116-0.161c1.064-1.506,1.573-3.403,1.283-5.366c-0.602-4.069-4.404-6.88-8.497-6.274
				c-2.237,0.33-4.096,1.613-5.227,3.374v0.002l-24.05,33.818c-0.001,0.003-0.005,0.005-0.006,0.01l-0.261,0.365
				c-0.083,0.092-0.163,0.187-0.242,0.282c-0.009,0.01-0.021,0.023-0.029,0.036c-0.301,0.409-0.577,0.834-0.836,1.271
				c-0.003,0.009-0.007,0.014-0.012,0.021c-0.003,0.007-0.007,0.012-0.008,0.018c-1.668,2.859-2.411,6.292-1.889,9.829
				c0.609,4.126,2.825,7.613,5.909,9.915l0.027,0.022l3.31,2.596c4.013-0.478,7.692,2.278,8.278,6.241
				c0.013,0.097,0.027,0.19,0.036,0.285l6.475,5.08c1.064,0.769,2.129,1.528,3.197,2.292
				C170.522,387.684,172.595,384.602,174.753,381.577z M172.701,374.575l0.394-0.537
				C172.972,374.224,172.842,374.404,172.701,374.575z"/>
			<path fill="#ECB135" d="M144.654,352.606l-0.261,0.365c-0.083,0.091-0.163,0.187-0.242,0.282
				C144.313,353.032,144.481,352.818,144.654,352.606z"/>
			<line fill="none" x1="124.392" y1="459.876" x2="122.4" y2="462.447"/>
			<path fill="#ECB135" d="M161.406,354.744l-2.905,4.075C158.311,356.901,159.563,355.153,161.406,354.744z"/>
			<path fill="#ECB135" d="M206.311,399.474c-0.306,0.406-0.633,0.793-0.978,1.167C205.701,400.288,206.029,399.896,206.311,399.474
				z"/>
			<path fill="#ECB135" d="M216.764,347.379c-0.604-4.094-4.393-6.925-8.46-6.322c-2.345,0.346-4.271,1.757-5.367,3.675
				c-0.808,1.405-1.165,3.089-0.908,4.823c0.605,4.093,4.393,6.922,8.462,6.321c1.633-0.24,3.063-0.998,4.151-2.086
				c0.066-0.063,0.131-0.131,0.194-0.197C216.332,351.984,217.112,349.729,216.764,347.379z"/>
			<path fill="#ECB135" d="M194.983,380.07c-1.566,0.489-2.645,1.927-2.657,3.546L194.983,380.07z"/>
			<path fill="#ECB135" d="M178.075,377.735c-0.143,0.172-0.276,0.35-0.402,0.531L178.075,377.735z"/>
			<path fill="#ECB135" d="M181.77,400.093c-0.703-3.979-4.404-6.706-8.368-6.12c-0.095,0.016-0.189,0.029-0.281,0.05
				L181.77,400.093z"/>
			<line fill="none" x1="195.853" y1="378.89" x2="198.027" y2="375.984"/>
			<path fill="#ECB135" d="M163.267,386.894c1.038,0.803,2.076,1.604,3.119,2.398l6.735,4.729c0.092-0.021,0.186-0.034,0.281-0.05
				c3.964-0.586,7.665,2.143,8.368,6.12l3.444,2.419l0.029,0.02c3.095,2.288,7.074,3.399,11.199,2.791
				c3.538-0.521,6.608-2.228,8.864-4.65c0.006-0.002,0.009-0.007,0.016-0.013c0.005-0.005,0.008-0.01,0.013-0.019
				c0.345-0.374,0.671-0.761,0.978-1.167c0.01-0.011,0.02-0.024,0.026-0.037c0.07-0.104,0.137-0.206,0.199-0.313l0.278-0.354
				c0.002-0.002,0.002-0.008,0.004-0.01l25.425-32.799v-0.001c1.358-1.59,2.049-3.741,1.718-5.978
				c-0.603-4.094-4.392-6.922-8.461-6.319c-1.964,0.289-3.633,1.325-4.769,2.778l-0.119,0.158l-17.077,22.078l-3.612,4.669v0.002
				c0.14,1.883-1.17,3.589-3.063,3.96c-0.06,0.01-0.123,0.021-0.183,0.031c-2.082,0.308-4.01-1.103-4.313-3.148
				c-0.028-0.192-0.042-0.386-0.04-0.573c0.012-1.619,1.091-3.056,2.657-3.546l3.06-4.082c-0.004-0.002-0.011-0.003-0.015-0.004
				l16.615-22.194c-1.088,1.088-2.518,1.846-4.151,2.086c-4.069,0.602-7.857-2.229-8.462-6.321c-0.257-1.734,0.1-3.418,0.908-4.823
				l-19.487,25.867l-2.393,3.181c-0.268,0.104-0.551,0.181-0.85,0.225c-2.004,0.295-3.868-1.008-4.268-2.935
				c-1.871,2.407-3.699,4.849-5.563,7.26C168.106,381.268,165.755,384.144,163.267,386.894z M178.075,377.735l-0.402,0.531
				C177.799,378.085,177.932,377.907,178.075,377.735z"/>
			<path fill="#ECB135" d="M206.814,398.768l-0.278,0.354c-0.062,0.106-0.128,0.21-0.199,0.313
				C206.502,399.216,206.661,398.994,206.814,398.768z"/>
			<path fill="#ECB135" d="M199.924,383.348l-3.063,3.96C198.753,386.936,200.064,385.229,199.924,383.348z"/>
		</g>
	</g>
</g>
<path fill="#3D7954" d="M356.18,207.608c-3.987-6.749-11.876-15.275-18.576-18.878c-11.515-6.192-22.873-2.03-29.784,8.194
	c-0.003,0.006-2.973,3.725-2.977,3.731l-18.727,27.043l-57.595,83.168l-1.016,1.465c-1.772,2.008-4.549,2.985-7.298,2.304
	c-3.96-0.982-6.361-5.034-5.365-9.048c0.219-0.878,0.58-1.68,1.055-2.39l0.002-0.003l0.183-0.26l0.026-0.039l76.34-109.479
	l6.445-8.054c10.639-13.955,34.609-17.462,49.242-5.884"/>
<path fill="#3D7954" d="M397.221,340.332"/>
<path fill="#3D7954" d="M392.688,265.354c0.077-2.181-0.705-4.17-2.004-5.572l-0.002-0.003l-33.17-49.048
	c-2.154-2.917-12.652-16.766-14.125-18c-12.73-10.668-2.5-25.541,11.917-5.792l45.453,63.22l0.006,0.01
	c0.304,0.545,0.67,1.036,1.086,1.473c1.076,1.118,2.489,1.841,4.06,1.962"/>
<path fill="#3D7954" d="M369.276,201.647"/>
<path fill="#3D7954" d="M387.461,314.201"/>
<g>
	<g>
		<path fill="#3D7954" d="M429.727,311.917c0.377,0.537,0.822,1.022,1.327,1.446C430.608,312.883,430.166,312.401,429.727,311.917z"
			/>
		<path fill="#3D7954" d="M445.665,251.427c-0.237-0.448-0.498-0.883-0.779-1.308C445.189,250.527,445.455,250.967,445.665,251.427z
			"/>
		<path fill="#3D7954" d="M450.702,299.091c-0.464,4.111-4.154,7.068-8.24,6.606c-2.354-0.264-4.33-1.607-5.487-3.488
			c-0.855-1.378-1.27-3.048-1.072-4.793c0.465-4.107,4.154-7.065,8.242-6.605c1.64,0.186,3.095,0.894,4.221,1.943
			c0.065,0.064,0.134,0.128,0.199,0.193C450.114,294.5,450.968,296.73,450.702,299.091z"/>
		<path fill="#3D7954" d="M427.819,267.161c-1.582-0.437-2.71-1.836-2.776-3.453L427.819,267.161z"/>
		<path fill="#3D7954" d="M406.589,281.241c-0.142-0.171-0.276-0.348-0.398-0.532L406.589,281.241z"/>
		<path fill="#3D7954" d="M413.931,247.6c-0.566,4.001-4.173,6.852-8.153,6.402c-0.098-0.011-0.191-0.022-0.285-0.038L413.931,247.6
			z"/>
		<line fill="none" x1="431" y1="271.141" x2="428.727" y2="268.312"/>
		<path fill="#3D7954" d="M403.287,269.742c1.941,2.347,3.854,4.723,5.806,7.065c0.336-1.939,2.152-3.306,4.169-3.078
			c0.296,0.033,0.583,0.1,0.854,0.195l2.501,3.095l20.356,25.189c-0.855-1.378-1.27-3.048-1.072-4.793
			c0.465-4.107,4.154-7.065,8.241-6.605c1.641,0.186,3.096,0.894,4.222,1.943L431,271.141c0.004-0.001,0.011-0.002,0.015-0.004
			l-3.196-3.976c-1.582-0.437-2.71-1.836-2.776-3.453c-0.01-0.188-0.002-0.383,0.021-0.574c0.231-2.06,2.112-3.531,4.202-3.297
			c0.063,0.01,0.125,0.018,0.186,0.027c1.901,0.308,3.271,1.965,3.194,3.852v0.003l3.771,4.543l17.821,21.483l0.125,0.153
			c1.183,1.414,2.886,2.394,4.858,2.615c4.088,0.461,7.778-2.494,8.242-6.604c0.254-2.248-0.511-4.372-1.922-5.916l-0.002-0.002
			L439.01,248.08c-0.003-0.002-0.003-0.007-0.008-0.011l-0.287-0.344c-0.065-0.104-0.137-0.205-0.21-0.308
			c-0.007-0.011-0.017-0.026-0.028-0.036c-0.317-0.396-0.657-0.771-1.015-1.133c-0.006-0.006-0.01-0.011-0.016-0.02
			c-0.005-0.003-0.009-0.007-0.016-0.011c-2.336-2.345-5.464-3.942-9.017-4.345c-4.145-0.468-8.083,0.78-11.098,3.171l-0.029,0.021
			l-3.357,2.533c-0.566,4.001-4.173,6.852-8.153,6.402c-0.098-0.011-0.191-0.022-0.285-0.038l-6.569,4.958
			c-1.015,0.829-2.022,1.664-3.034,2.5C398.468,264.087,400.916,266.882,403.287,269.742z M406.19,280.709l0.398,0.532
			C406.448,281.07,406.313,280.894,406.19,280.709z"/>
		<path fill="#3D7954" d="M446.048,252.204l-0.216-0.395c-0.045-0.113-0.095-0.229-0.148-0.342
			C445.814,251.711,445.933,251.956,446.048,252.204z"/>
		<path fill="#3D7954" d="M432.645,263.716l-3.195-3.852C431.352,260.172,432.721,261.829,432.645,263.716z"/>
		<path fill="#3D7954" d="M378.4,297.911c-0.335-0.384-0.646-0.782-0.942-1.198C377.727,297.146,378.044,297.548,378.4,297.911z"/>
		<path fill="#3D7954" d="M425.578,319.112c4.112,0.466,7.82-2.47,8.279-6.558c0.269-2.354-0.603-4.579-2.176-6.13
			c-1.152-1.14-2.688-1.918-4.431-2.113c-4.109-0.463-7.816,2.474-8.278,6.562c-0.187,1.64,0.181,3.215,0.952,4.547
			c0.045,0.079,0.095,0.158,0.143,0.235C421.237,317.515,423.217,318.847,425.578,319.112z"/>
		<path fill="#3D7954" d="M399.56,289.682c-0.072-1.64-1.185-3.05-2.747-3.477L399.56,289.682z"/>
		<path fill="#3D7954" d="M401.755,283.918c-0.114-0.192-0.235-0.379-0.364-0.561L401.755,283.918z"/>
		<path fill="#3D7954" d="M383.591,271.78c4.027,0.34,7.611-2.538,8.062-6.521c0.009-0.096,0.019-0.189,0.024-0.284L383.591,271.78z
			"/>
		<line fill="none" x1="400.479" y1="290.825" x2="402.729" y2="293.673"/>
		<path fill="#3D7954" d="M401.091,257.276c-1.041,0.799-2.081,1.597-3.118,2.401l-6.297,5.298
			c-0.005,0.095-0.015,0.188-0.024,0.284c-0.45,3.982-4.035,6.86-8.062,6.521l-3.22,2.709l-0.024,0.022
			c-3.005,2.406-5.1,5.966-5.568,10.111c-0.402,3.552,0.459,6.956,2.224,9.759c0,0.006,0.004,0.01,0.008,0.02
			c0.002,0.006,0.006,0.009,0.013,0.014c0.274,0.432,0.563,0.846,0.878,1.246c0.007,0.012,0.019,0.025,0.028,0.034
			c0.083,0.096,0.165,0.186,0.252,0.273l0.272,0.359c0.001,0.003,0.007,0.004,0.008,0.006l25.189,32.981l0.001,0.001
			c1.188,1.72,3.09,2.938,5.337,3.19c4.11,0.467,7.814-2.471,8.276-6.559c0.224-1.974-0.351-3.853-1.464-5.32l-0.123-0.156
			l-16.965-22.166l-3.587-4.688l-0.002-0.001c-1.854-0.345-3.168-2.05-3.043-3.975c0.007-0.061,0.01-0.123,0.017-0.185
			c0.237-2.092,2.093-3.594,4.149-3.361c0.192,0.021,0.382,0.058,0.563,0.107c1.563,0.427,2.675,1.837,2.747,3.477l3.162,4.005
			c0.002-0.005,0.005-0.011,0.009-0.014l17.194,21.748c-0.771-1.332-1.139-2.907-0.952-4.547c0.462-4.088,4.169-7.024,8.278-6.562
			c1.744,0.195,3.278,0.974,4.431,2.113l-20.012-25.463l-2.461-3.129c-0.031-0.285-0.032-0.578,0.001-0.879
			c0.229-2.013,1.966-3.481,3.931-3.373c-1.849-2.425-3.739-4.818-5.592-7.237C405.29,263.396,403.112,260.386,401.091,257.276z
			 M401.755,283.918l-0.364-0.561C401.52,283.539,401.642,283.726,401.755,283.918z"/>
		<path fill="#3D7954" d="M378.987,298.548l-0.29-0.345c-0.093-0.083-0.179-0.169-0.267-0.26
			C378.612,298.149,378.797,298.352,378.987,298.548z"/>
		<path fill="#3D7954" d="M395.126,293.618l-3.043-3.975C391.958,291.568,393.271,293.273,395.126,293.618z"/>
	</g>
</g>
<line fill="#050505" x1="2722.309" y1="0" x2="2722.309" y2="2178.975"/>
</svg>
